M48
; FORMAT={-:-/ absolute / metric / decimal}
; #@! TF.GenerationSoftware,Kicad,Pcbnew,7.0.11+1
; #@! TF.FileFunction,Plated,1,2,PTH
FMAT,2
METRIC
; #@! TA.AperFunction,Plated,PTH,ComponentDrill
T1C0.600
; #@! TA.AperFunction,Plated,PTH,ComponentDrill
T2C0.950
; #@! TA.AperFunction,Plated,PTH,ComponentDrill
T3C1.000
%
G90
G05
T2
X72.1Y-64.85
X72.1Y-67.35
X72.1Y-69.85
X72.1Y-72.35
X135.136Y-69.656
X135.136Y-72.156
X135.136Y-74.656
X135.136Y-77.156
T3
X70.835Y-57.65
X73.375Y-57.65
X88.138Y-46.99
X88.138Y-64.77
X128.778Y-46.99
X128.778Y-64.77
X134.86Y-49.2
X135.136Y-39.136
X135.136Y-41.636
X137.4Y-49.2
T1
G00X134.48Y-54.08
M15
G01X135.58Y-54.08
M16
G05
G00X134.48Y-62.72
M15
G01X135.58Y-62.72
M16
G05
G00X138.91Y-54.08
M15
G01X139.51Y-54.08
M16
G05
G00X138.91Y-62.72
M15
G01X139.51Y-62.72
M16
G05
T3
G00X72.75Y-44.6
M15
G01X72.75Y-46.6
M16
G05
G00X74.75Y-50.3
M15
G01X76.75Y-50.3
M16
G05
G00X78.75Y-44.6
M15
G01X78.75Y-46.6
M16
G05
M30
