G04 #@! TF.GenerationSoftware,KiCad,Pcbnew,7.0.11+1*
G04 #@! TF.ProjectId,radwag_scale,72616477-6167-45f7-9363-616c652e6b69,rev?*
G04 #@! TF.SameCoordinates,Original*
G04 #@! TF.FileFunction,Soldermask,Bot*
G04 #@! TF.FilePolarity,Negative*
%FSLAX46Y46*%
G04 Gerber Fmt 4.6, Leading zero omitted, Abs format (unit mm)*
%MOMM*%
%LPD*%
G01*
G04 APERTURE LIST*
G04 #@! TA.AperFunction,Profile*
%ADD10C,0.200000*%
G04 #@! TD*
%ADD11C,0.650000*%
%ADD12O,2.100000X1.000000*%
%ADD13O,1.600000X1.000000*%
%ADD14R,3.500000X3.500000*%
%ADD15C,3.200000*%
%ADD16O,1.950000X1.700000*%
%ADD17R,1.700000X1.700000*%
%ADD18O,1.700000X1.700000*%
%ADD19R,2.540000X2.540000*%
%ADD20C,2.540000*%
%ADD21O,2.000000X1.700000*%
G04 APERTURE END LIST*
D10*
X66330000Y-35560000D02*
X140716000Y-35560000D01*
X140716000Y-81534000D01*
X66330000Y-81534000D01*
X66330000Y-35560000D01*
D11*
X135560000Y-61290000D03*
X135560000Y-55510000D03*
D12*
X135030000Y-62720000D03*
D13*
X139210000Y-62720000D03*
D12*
X135030000Y-54080000D03*
D13*
X139210000Y-54080000D03*
D14*
X78750000Y-45600000D03*
G36*
G01*
X71250000Y-46600000D02*
X71250000Y-44600000D01*
G75*
G02*
X72000000Y-43850000I750000J0D01*
G01*
X73500000Y-43850000D01*
G75*
G02*
X74250000Y-44600000I0J-750000D01*
G01*
X74250000Y-46600000D01*
G75*
G02*
X73500000Y-47350000I-750000J0D01*
G01*
X72000000Y-47350000D01*
G75*
G02*
X71250000Y-46600000I0J750000D01*
G01*
G37*
G36*
G01*
X74000000Y-51175000D02*
X74000000Y-49425000D01*
G75*
G02*
X74875000Y-48550000I875000J0D01*
G01*
X76625000Y-48550000D01*
G75*
G02*
X77500000Y-49425000I0J-875000D01*
G01*
X77500000Y-51175000D01*
G75*
G02*
X76625000Y-52050000I-875000J0D01*
G01*
X74875000Y-52050000D01*
G75*
G02*
X74000000Y-51175000I0J875000D01*
G01*
G37*
D15*
X125000000Y-40000000D03*
X90000000Y-77000000D03*
G36*
G01*
X72825000Y-73200000D02*
X71375000Y-73200000D01*
G75*
G02*
X71125000Y-72950000I0J250000D01*
G01*
X71125000Y-71750000D01*
G75*
G02*
X71375000Y-71500000I250000J0D01*
G01*
X72825000Y-71500000D01*
G75*
G02*
X73075000Y-71750000I0J-250000D01*
G01*
X73075000Y-72950000D01*
G75*
G02*
X72825000Y-73200000I-250000J0D01*
G01*
G37*
D16*
X72100000Y-69850000D03*
X72100000Y-67350000D03*
X72100000Y-64850000D03*
D17*
X73375000Y-57650000D03*
D18*
X70835000Y-57650000D03*
D17*
X137400000Y-49200000D03*
D18*
X134860000Y-49200000D03*
D15*
X125000000Y-77000000D03*
D19*
X128778000Y-64770000D03*
D20*
X128778000Y-46990000D03*
X88138000Y-46990000D03*
X88138000Y-64770000D03*
G36*
G01*
X134385500Y-38286000D02*
X135885500Y-38286000D01*
G75*
G02*
X136135500Y-38536000I0J-250000D01*
G01*
X136135500Y-39736000D01*
G75*
G02*
X135885500Y-39986000I-250000J0D01*
G01*
X134385500Y-39986000D01*
G75*
G02*
X134135500Y-39736000I0J250000D01*
G01*
X134135500Y-38536000D01*
G75*
G02*
X134385500Y-38286000I250000J0D01*
G01*
G37*
D21*
X135135500Y-41636000D03*
G36*
G01*
X134410500Y-68806000D02*
X135860500Y-68806000D01*
G75*
G02*
X136110500Y-69056000I0J-250000D01*
G01*
X136110500Y-70256000D01*
G75*
G02*
X135860500Y-70506000I-250000J0D01*
G01*
X134410500Y-70506000D01*
G75*
G02*
X134160500Y-70256000I0J250000D01*
G01*
X134160500Y-69056000D01*
G75*
G02*
X134410500Y-68806000I250000J0D01*
G01*
G37*
D16*
X135135500Y-72156000D03*
X135135500Y-74656000D03*
X135135500Y-77156000D03*
D15*
X90000000Y-40000000D03*
M02*
