%TF.GenerationSoftware,KiCad,Pcbnew,7.0.11+1*%
%TF.ProjectId,radwag_scale,72616477-6167-45f7-9363-616c652e6b69,rev?*%
%TF.SameCoordinates,Original*%
%TF.FileFunction,Drillmap*%
%TF.FilePolarity,Positive*%
%FSLAX45Y45*%
G04 Gerber Fmt 4.5, Leading zero omitted, Abs format (unit mm)*
%MOMM*%
%LPD*%
G01*
G04 APERTURE LIST*
%ADD10C,0.200000*%
%ADD11C,0.100000*%
G04 APERTURE END LIST*
D10*
X6633000Y-3556000D02*
X14071600Y-3556000D01*
X14071600Y-8153400D01*
X6633000Y-8153400D01*
X6633000Y-3556000D01*
D11*
X13473000Y-5378000D02*
X13533000Y-5438000D01*
X13533000Y-5378000D02*
X13473000Y-5438000D01*
X13448000Y-5438000D02*
X13558000Y-5438000D01*
X13558000Y-5438000D02*
G75*
G03*
X13558000Y-5378000I0J30000D01*
G01*
X13558000Y-5378000D02*
X13448000Y-5378000D01*
X13448000Y-5378000D02*
G75*
G03*
X13448000Y-5438000I0J-30000D01*
G01*
X13473000Y-6242000D02*
X13533000Y-6302000D01*
X13533000Y-6242000D02*
X13473000Y-6302000D01*
X13448000Y-6302000D02*
X13558000Y-6302000D01*
X13558000Y-6302000D02*
G75*
G03*
X13558000Y-6242000I0J30000D01*
G01*
X13558000Y-6242000D02*
X13448000Y-6242000D01*
X13448000Y-6242000D02*
G75*
G03*
X13448000Y-6302000I0J-30000D01*
G01*
X13891000Y-5378000D02*
X13951000Y-5438000D01*
X13951000Y-5378000D02*
X13891000Y-5438000D01*
X13891000Y-5438000D02*
X13951000Y-5438000D01*
X13951000Y-5438000D02*
G75*
G03*
X13951000Y-5378000I0J30000D01*
G01*
X13951000Y-5378000D02*
X13891000Y-5378000D01*
X13891000Y-5378000D02*
G75*
G03*
X13891000Y-5438000I0J-30000D01*
G01*
X13891000Y-6242000D02*
X13951000Y-6302000D01*
X13951000Y-6242000D02*
X13891000Y-6302000D01*
X13891000Y-6302000D02*
X13951000Y-6302000D01*
X13951000Y-6302000D02*
G75*
G03*
X13951000Y-6242000I0J30000D01*
G01*
X13951000Y-6242000D02*
X13891000Y-6242000D01*
X13891000Y-6242000D02*
G75*
G03*
X13891000Y-6302000I0J-30000D01*
G01*
X7257500Y-6485000D02*
G75*
G03*
X7162500Y-6485000I-47500J0D01*
G01*
X7162500Y-6485000D02*
G75*
G03*
X7257500Y-6485000I47500J0D01*
G01*
X7257500Y-6735000D02*
G75*
G03*
X7162500Y-6735000I-47500J0D01*
G01*
X7162500Y-6735000D02*
G75*
G03*
X7257500Y-6735000I47500J0D01*
G01*
X7257500Y-6985000D02*
G75*
G03*
X7162500Y-6985000I-47500J0D01*
G01*
X7162500Y-6985000D02*
G75*
G03*
X7257500Y-6985000I47500J0D01*
G01*
X7257500Y-7235000D02*
G75*
G03*
X7162500Y-7235000I-47500J0D01*
G01*
X7162500Y-7235000D02*
G75*
G03*
X7257500Y-7235000I47500J0D01*
G01*
X13561050Y-6965600D02*
G75*
G03*
X13466050Y-6965600I-47500J0D01*
G01*
X13466050Y-6965600D02*
G75*
G03*
X13561050Y-6965600I47500J0D01*
G01*
X13561050Y-7215600D02*
G75*
G03*
X13466050Y-7215600I-47500J0D01*
G01*
X13466050Y-7215600D02*
G75*
G03*
X13561050Y-7215600I47500J0D01*
G01*
X13561050Y-7465600D02*
G75*
G03*
X13466050Y-7465600I-47500J0D01*
G01*
X13466050Y-7465600D02*
G75*
G03*
X13561050Y-7465600I47500J0D01*
G01*
X13561050Y-7715600D02*
G75*
G03*
X13466050Y-7715600I-47500J0D01*
G01*
X13466050Y-7715600D02*
G75*
G03*
X13561050Y-7715600I47500J0D01*
G01*
X7083500Y-5715000D02*
X7083500Y-5815000D01*
X7033500Y-5765000D02*
X7133500Y-5765000D01*
X7275000Y-4510000D02*
X7275000Y-4610000D01*
X7225000Y-4560000D02*
X7325000Y-4560000D01*
X7225000Y-4460000D02*
X7225000Y-4660000D01*
X7225000Y-4660000D02*
G75*
G03*
X7325000Y-4660000I50000J0D01*
G01*
X7325000Y-4660000D02*
X7325000Y-4460000D01*
X7325000Y-4460000D02*
G75*
G03*
X7225000Y-4460000I-50000J0D01*
G01*
X7337500Y-5715000D02*
X7337500Y-5815000D01*
X7287500Y-5765000D02*
X7387500Y-5765000D01*
X7575000Y-4980000D02*
X7575000Y-5080000D01*
X7525000Y-5030000D02*
X7625000Y-5030000D01*
X7475000Y-5080000D02*
X7675000Y-5080000D01*
X7675000Y-5080000D02*
G75*
G03*
X7675000Y-4980000I0J50000D01*
G01*
X7675000Y-4980000D02*
X7475000Y-4980000D01*
X7475000Y-4980000D02*
G75*
G03*
X7475000Y-5080000I0J-50000D01*
G01*
X7875000Y-4510000D02*
X7875000Y-4610000D01*
X7825000Y-4560000D02*
X7925000Y-4560000D01*
X7825000Y-4460000D02*
X7825000Y-4660000D01*
X7825000Y-4660000D02*
G75*
G03*
X7925000Y-4660000I50000J0D01*
G01*
X7925000Y-4660000D02*
X7925000Y-4460000D01*
X7925000Y-4460000D02*
G75*
G03*
X7825000Y-4460000I-50000J0D01*
G01*
X8813800Y-4649000D02*
X8813800Y-4749000D01*
X8763800Y-4699000D02*
X8863800Y-4699000D01*
X8813800Y-6427000D02*
X8813800Y-6527000D01*
X8763800Y-6477000D02*
X8863800Y-6477000D01*
X12877800Y-4649000D02*
X12877800Y-4749000D01*
X12827800Y-4699000D02*
X12927800Y-4699000D01*
X12877800Y-6427000D02*
X12877800Y-6527000D01*
X12827800Y-6477000D02*
X12927800Y-6477000D01*
X13486000Y-4870000D02*
X13486000Y-4970000D01*
X13436000Y-4920000D02*
X13536000Y-4920000D01*
X13513550Y-3863600D02*
X13513550Y-3963600D01*
X13463550Y-3913600D02*
X13563550Y-3913600D01*
X13513550Y-4113600D02*
X13513550Y-4213600D01*
X13463550Y-4163600D02*
X13563550Y-4163600D01*
X13740000Y-4870000D02*
X13740000Y-4970000D01*
X13690000Y-4920000D02*
X13790000Y-4920000D01*
D10*
X6883777Y-8474884D02*
X6883777Y-8274884D01*
X6883777Y-8274884D02*
X6931396Y-8274884D01*
X6931396Y-8274884D02*
X6959967Y-8284408D01*
X6959967Y-8284408D02*
X6979015Y-8303455D01*
X6979015Y-8303455D02*
X6988539Y-8322503D01*
X6988539Y-8322503D02*
X6998062Y-8360598D01*
X6998062Y-8360598D02*
X6998062Y-8389170D01*
X6998062Y-8389170D02*
X6988539Y-8427265D01*
X6988539Y-8427265D02*
X6979015Y-8446312D01*
X6979015Y-8446312D02*
X6959967Y-8465360D01*
X6959967Y-8465360D02*
X6931396Y-8474884D01*
X6931396Y-8474884D02*
X6883777Y-8474884D01*
X7083777Y-8474884D02*
X7083777Y-8341550D01*
X7083777Y-8379646D02*
X7093301Y-8360598D01*
X7093301Y-8360598D02*
X7102824Y-8351074D01*
X7102824Y-8351074D02*
X7121872Y-8341550D01*
X7121872Y-8341550D02*
X7140920Y-8341550D01*
X7207586Y-8474884D02*
X7207586Y-8341550D01*
X7207586Y-8274884D02*
X7198062Y-8284408D01*
X7198062Y-8284408D02*
X7207586Y-8293931D01*
X7207586Y-8293931D02*
X7217110Y-8284408D01*
X7217110Y-8284408D02*
X7207586Y-8274884D01*
X7207586Y-8274884D02*
X7207586Y-8293931D01*
X7331396Y-8474884D02*
X7312348Y-8465360D01*
X7312348Y-8465360D02*
X7302824Y-8446312D01*
X7302824Y-8446312D02*
X7302824Y-8274884D01*
X7436158Y-8474884D02*
X7417110Y-8465360D01*
X7417110Y-8465360D02*
X7407586Y-8446312D01*
X7407586Y-8446312D02*
X7407586Y-8274884D01*
X7664729Y-8474884D02*
X7664729Y-8274884D01*
X7664729Y-8274884D02*
X7731396Y-8417741D01*
X7731396Y-8417741D02*
X7798062Y-8274884D01*
X7798062Y-8274884D02*
X7798062Y-8474884D01*
X7979015Y-8474884D02*
X7979015Y-8370122D01*
X7979015Y-8370122D02*
X7969491Y-8351074D01*
X7969491Y-8351074D02*
X7950443Y-8341550D01*
X7950443Y-8341550D02*
X7912348Y-8341550D01*
X7912348Y-8341550D02*
X7893301Y-8351074D01*
X7979015Y-8465360D02*
X7959967Y-8474884D01*
X7959967Y-8474884D02*
X7912348Y-8474884D01*
X7912348Y-8474884D02*
X7893301Y-8465360D01*
X7893301Y-8465360D02*
X7883777Y-8446312D01*
X7883777Y-8446312D02*
X7883777Y-8427265D01*
X7883777Y-8427265D02*
X7893301Y-8408217D01*
X7893301Y-8408217D02*
X7912348Y-8398693D01*
X7912348Y-8398693D02*
X7959967Y-8398693D01*
X7959967Y-8398693D02*
X7979015Y-8389170D01*
X8074253Y-8341550D02*
X8074253Y-8541550D01*
X8074253Y-8351074D02*
X8093301Y-8341550D01*
X8093301Y-8341550D02*
X8131396Y-8341550D01*
X8131396Y-8341550D02*
X8150443Y-8351074D01*
X8150443Y-8351074D02*
X8159967Y-8360598D01*
X8159967Y-8360598D02*
X8169491Y-8379646D01*
X8169491Y-8379646D02*
X8169491Y-8436789D01*
X8169491Y-8436789D02*
X8159967Y-8455836D01*
X8159967Y-8455836D02*
X8150443Y-8465360D01*
X8150443Y-8465360D02*
X8131396Y-8474884D01*
X8131396Y-8474884D02*
X8093301Y-8474884D01*
X8093301Y-8474884D02*
X8074253Y-8465360D01*
X8255205Y-8455836D02*
X8264729Y-8465360D01*
X8264729Y-8465360D02*
X8255205Y-8474884D01*
X8255205Y-8474884D02*
X8245682Y-8465360D01*
X8245682Y-8465360D02*
X8255205Y-8455836D01*
X8255205Y-8455836D02*
X8255205Y-8474884D01*
X8255205Y-8351074D02*
X8264729Y-8360598D01*
X8264729Y-8360598D02*
X8255205Y-8370122D01*
X8255205Y-8370122D02*
X8245682Y-8360598D01*
X8245682Y-8360598D02*
X8255205Y-8351074D01*
X8255205Y-8351074D02*
X8255205Y-8370122D01*
D11*
X6563000Y-8773400D02*
X6623000Y-8833400D01*
X6623000Y-8773400D02*
X6563000Y-8833400D01*
D10*
X6921872Y-8694884D02*
X6940920Y-8694884D01*
X6940920Y-8694884D02*
X6959967Y-8704408D01*
X6959967Y-8704408D02*
X6969491Y-8713931D01*
X6969491Y-8713931D02*
X6979015Y-8732979D01*
X6979015Y-8732979D02*
X6988539Y-8771074D01*
X6988539Y-8771074D02*
X6988539Y-8818693D01*
X6988539Y-8818693D02*
X6979015Y-8856789D01*
X6979015Y-8856789D02*
X6969491Y-8875836D01*
X6969491Y-8875836D02*
X6959967Y-8885360D01*
X6959967Y-8885360D02*
X6940920Y-8894884D01*
X6940920Y-8894884D02*
X6921872Y-8894884D01*
X6921872Y-8894884D02*
X6902824Y-8885360D01*
X6902824Y-8885360D02*
X6893301Y-8875836D01*
X6893301Y-8875836D02*
X6883777Y-8856789D01*
X6883777Y-8856789D02*
X6874253Y-8818693D01*
X6874253Y-8818693D02*
X6874253Y-8771074D01*
X6874253Y-8771074D02*
X6883777Y-8732979D01*
X6883777Y-8732979D02*
X6893301Y-8713931D01*
X6893301Y-8713931D02*
X6902824Y-8704408D01*
X6902824Y-8704408D02*
X6921872Y-8694884D01*
X7074253Y-8875836D02*
X7083777Y-8885360D01*
X7083777Y-8885360D02*
X7074253Y-8894884D01*
X7074253Y-8894884D02*
X7064729Y-8885360D01*
X7064729Y-8885360D02*
X7074253Y-8875836D01*
X7074253Y-8875836D02*
X7074253Y-8894884D01*
X7255205Y-8694884D02*
X7217110Y-8694884D01*
X7217110Y-8694884D02*
X7198062Y-8704408D01*
X7198062Y-8704408D02*
X7188539Y-8713931D01*
X7188539Y-8713931D02*
X7169491Y-8742503D01*
X7169491Y-8742503D02*
X7159967Y-8780598D01*
X7159967Y-8780598D02*
X7159967Y-8856789D01*
X7159967Y-8856789D02*
X7169491Y-8875836D01*
X7169491Y-8875836D02*
X7179015Y-8885360D01*
X7179015Y-8885360D02*
X7198062Y-8894884D01*
X7198062Y-8894884D02*
X7236158Y-8894884D01*
X7236158Y-8894884D02*
X7255205Y-8885360D01*
X7255205Y-8885360D02*
X7264729Y-8875836D01*
X7264729Y-8875836D02*
X7274253Y-8856789D01*
X7274253Y-8856789D02*
X7274253Y-8809170D01*
X7274253Y-8809170D02*
X7264729Y-8790122D01*
X7264729Y-8790122D02*
X7255205Y-8780598D01*
X7255205Y-8780598D02*
X7236158Y-8771074D01*
X7236158Y-8771074D02*
X7198062Y-8771074D01*
X7198062Y-8771074D02*
X7179015Y-8780598D01*
X7179015Y-8780598D02*
X7169491Y-8790122D01*
X7169491Y-8790122D02*
X7159967Y-8809170D01*
X7398062Y-8694884D02*
X7417110Y-8694884D01*
X7417110Y-8694884D02*
X7436158Y-8704408D01*
X7436158Y-8704408D02*
X7445682Y-8713931D01*
X7445682Y-8713931D02*
X7455205Y-8732979D01*
X7455205Y-8732979D02*
X7464729Y-8771074D01*
X7464729Y-8771074D02*
X7464729Y-8818693D01*
X7464729Y-8818693D02*
X7455205Y-8856789D01*
X7455205Y-8856789D02*
X7445682Y-8875836D01*
X7445682Y-8875836D02*
X7436158Y-8885360D01*
X7436158Y-8885360D02*
X7417110Y-8894884D01*
X7417110Y-8894884D02*
X7398062Y-8894884D01*
X7398062Y-8894884D02*
X7379015Y-8885360D01*
X7379015Y-8885360D02*
X7369491Y-8875836D01*
X7369491Y-8875836D02*
X7359967Y-8856789D01*
X7359967Y-8856789D02*
X7350443Y-8818693D01*
X7350443Y-8818693D02*
X7350443Y-8771074D01*
X7350443Y-8771074D02*
X7359967Y-8732979D01*
X7359967Y-8732979D02*
X7369491Y-8713931D01*
X7369491Y-8713931D02*
X7379015Y-8704408D01*
X7379015Y-8704408D02*
X7398062Y-8694884D01*
X7588539Y-8694884D02*
X7607586Y-8694884D01*
X7607586Y-8694884D02*
X7626634Y-8704408D01*
X7626634Y-8704408D02*
X7636158Y-8713931D01*
X7636158Y-8713931D02*
X7645682Y-8732979D01*
X7645682Y-8732979D02*
X7655205Y-8771074D01*
X7655205Y-8771074D02*
X7655205Y-8818693D01*
X7655205Y-8818693D02*
X7645682Y-8856789D01*
X7645682Y-8856789D02*
X7636158Y-8875836D01*
X7636158Y-8875836D02*
X7626634Y-8885360D01*
X7626634Y-8885360D02*
X7607586Y-8894884D01*
X7607586Y-8894884D02*
X7588539Y-8894884D01*
X7588539Y-8894884D02*
X7569491Y-8885360D01*
X7569491Y-8885360D02*
X7559967Y-8875836D01*
X7559967Y-8875836D02*
X7550443Y-8856789D01*
X7550443Y-8856789D02*
X7540920Y-8818693D01*
X7540920Y-8818693D02*
X7540920Y-8771074D01*
X7540920Y-8771074D02*
X7550443Y-8732979D01*
X7550443Y-8732979D02*
X7559967Y-8713931D01*
X7559967Y-8713931D02*
X7569491Y-8704408D01*
X7569491Y-8704408D02*
X7588539Y-8694884D01*
X7740920Y-8894884D02*
X7740920Y-8761550D01*
X7740920Y-8780598D02*
X7750443Y-8771074D01*
X7750443Y-8771074D02*
X7769491Y-8761550D01*
X7769491Y-8761550D02*
X7798063Y-8761550D01*
X7798063Y-8761550D02*
X7817110Y-8771074D01*
X7817110Y-8771074D02*
X7826634Y-8790122D01*
X7826634Y-8790122D02*
X7826634Y-8894884D01*
X7826634Y-8790122D02*
X7836158Y-8771074D01*
X7836158Y-8771074D02*
X7855205Y-8761550D01*
X7855205Y-8761550D02*
X7883777Y-8761550D01*
X7883777Y-8761550D02*
X7902824Y-8771074D01*
X7902824Y-8771074D02*
X7912348Y-8790122D01*
X7912348Y-8790122D02*
X7912348Y-8894884D01*
X8007586Y-8894884D02*
X8007586Y-8761550D01*
X8007586Y-8780598D02*
X8017110Y-8771074D01*
X8017110Y-8771074D02*
X8036158Y-8761550D01*
X8036158Y-8761550D02*
X8064729Y-8761550D01*
X8064729Y-8761550D02*
X8083777Y-8771074D01*
X8083777Y-8771074D02*
X8093301Y-8790122D01*
X8093301Y-8790122D02*
X8093301Y-8894884D01*
X8093301Y-8790122D02*
X8102824Y-8771074D01*
X8102824Y-8771074D02*
X8121872Y-8761550D01*
X8121872Y-8761550D02*
X8150443Y-8761550D01*
X8150443Y-8761550D02*
X8169491Y-8771074D01*
X8169491Y-8771074D02*
X8179015Y-8790122D01*
X8179015Y-8790122D02*
X8179015Y-8894884D01*
X8569491Y-8685360D02*
X8398063Y-8942503D01*
X8826634Y-8694884D02*
X8845682Y-8694884D01*
X8845682Y-8694884D02*
X8864729Y-8704408D01*
X8864729Y-8704408D02*
X8874253Y-8713931D01*
X8874253Y-8713931D02*
X8883777Y-8732979D01*
X8883777Y-8732979D02*
X8893301Y-8771074D01*
X8893301Y-8771074D02*
X8893301Y-8818693D01*
X8893301Y-8818693D02*
X8883777Y-8856789D01*
X8883777Y-8856789D02*
X8874253Y-8875836D01*
X8874253Y-8875836D02*
X8864729Y-8885360D01*
X8864729Y-8885360D02*
X8845682Y-8894884D01*
X8845682Y-8894884D02*
X8826634Y-8894884D01*
X8826634Y-8894884D02*
X8807587Y-8885360D01*
X8807587Y-8885360D02*
X8798063Y-8875836D01*
X8798063Y-8875836D02*
X8788539Y-8856789D01*
X8788539Y-8856789D02*
X8779015Y-8818693D01*
X8779015Y-8818693D02*
X8779015Y-8771074D01*
X8779015Y-8771074D02*
X8788539Y-8732979D01*
X8788539Y-8732979D02*
X8798063Y-8713931D01*
X8798063Y-8713931D02*
X8807587Y-8704408D01*
X8807587Y-8704408D02*
X8826634Y-8694884D01*
X8979015Y-8875836D02*
X8988539Y-8885360D01*
X8988539Y-8885360D02*
X8979015Y-8894884D01*
X8979015Y-8894884D02*
X8969491Y-8885360D01*
X8969491Y-8885360D02*
X8979015Y-8875836D01*
X8979015Y-8875836D02*
X8979015Y-8894884D01*
X9112348Y-8694884D02*
X9131396Y-8694884D01*
X9131396Y-8694884D02*
X9150444Y-8704408D01*
X9150444Y-8704408D02*
X9159968Y-8713931D01*
X9159968Y-8713931D02*
X9169491Y-8732979D01*
X9169491Y-8732979D02*
X9179015Y-8771074D01*
X9179015Y-8771074D02*
X9179015Y-8818693D01*
X9179015Y-8818693D02*
X9169491Y-8856789D01*
X9169491Y-8856789D02*
X9159968Y-8875836D01*
X9159968Y-8875836D02*
X9150444Y-8885360D01*
X9150444Y-8885360D02*
X9131396Y-8894884D01*
X9131396Y-8894884D02*
X9112348Y-8894884D01*
X9112348Y-8894884D02*
X9093301Y-8885360D01*
X9093301Y-8885360D02*
X9083777Y-8875836D01*
X9083777Y-8875836D02*
X9074253Y-8856789D01*
X9074253Y-8856789D02*
X9064729Y-8818693D01*
X9064729Y-8818693D02*
X9064729Y-8771074D01*
X9064729Y-8771074D02*
X9074253Y-8732979D01*
X9074253Y-8732979D02*
X9083777Y-8713931D01*
X9083777Y-8713931D02*
X9093301Y-8704408D01*
X9093301Y-8704408D02*
X9112348Y-8694884D01*
X9255206Y-8713931D02*
X9264729Y-8704408D01*
X9264729Y-8704408D02*
X9283777Y-8694884D01*
X9283777Y-8694884D02*
X9331396Y-8694884D01*
X9331396Y-8694884D02*
X9350444Y-8704408D01*
X9350444Y-8704408D02*
X9359968Y-8713931D01*
X9359968Y-8713931D02*
X9369491Y-8732979D01*
X9369491Y-8732979D02*
X9369491Y-8752027D01*
X9369491Y-8752027D02*
X9359968Y-8780598D01*
X9359968Y-8780598D02*
X9245682Y-8894884D01*
X9245682Y-8894884D02*
X9369491Y-8894884D01*
X9436158Y-8694884D02*
X9559968Y-8694884D01*
X9559968Y-8694884D02*
X9493301Y-8771074D01*
X9493301Y-8771074D02*
X9521872Y-8771074D01*
X9521872Y-8771074D02*
X9540920Y-8780598D01*
X9540920Y-8780598D02*
X9550444Y-8790122D01*
X9550444Y-8790122D02*
X9559968Y-8809170D01*
X9559968Y-8809170D02*
X9559968Y-8856789D01*
X9559968Y-8856789D02*
X9550444Y-8875836D01*
X9550444Y-8875836D02*
X9540920Y-8885360D01*
X9540920Y-8885360D02*
X9521872Y-8894884D01*
X9521872Y-8894884D02*
X9464729Y-8894884D01*
X9464729Y-8894884D02*
X9445682Y-8885360D01*
X9445682Y-8885360D02*
X9436158Y-8875836D01*
X9731396Y-8694884D02*
X9693301Y-8694884D01*
X9693301Y-8694884D02*
X9674253Y-8704408D01*
X9674253Y-8704408D02*
X9664729Y-8713931D01*
X9664729Y-8713931D02*
X9645682Y-8742503D01*
X9645682Y-8742503D02*
X9636158Y-8780598D01*
X9636158Y-8780598D02*
X9636158Y-8856789D01*
X9636158Y-8856789D02*
X9645682Y-8875836D01*
X9645682Y-8875836D02*
X9655206Y-8885360D01*
X9655206Y-8885360D02*
X9674253Y-8894884D01*
X9674253Y-8894884D02*
X9712349Y-8894884D01*
X9712349Y-8894884D02*
X9731396Y-8885360D01*
X9731396Y-8885360D02*
X9740920Y-8875836D01*
X9740920Y-8875836D02*
X9750444Y-8856789D01*
X9750444Y-8856789D02*
X9750444Y-8809170D01*
X9750444Y-8809170D02*
X9740920Y-8790122D01*
X9740920Y-8790122D02*
X9731396Y-8780598D01*
X9731396Y-8780598D02*
X9712349Y-8771074D01*
X9712349Y-8771074D02*
X9674253Y-8771074D01*
X9674253Y-8771074D02*
X9655206Y-8780598D01*
X9655206Y-8780598D02*
X9645682Y-8790122D01*
X9645682Y-8790122D02*
X9636158Y-8809170D01*
X9826634Y-8694884D02*
X9826634Y-8732979D01*
X9902825Y-8694884D02*
X9902825Y-8732979D01*
X10198063Y-8971074D02*
X10188539Y-8961550D01*
X10188539Y-8961550D02*
X10169491Y-8932979D01*
X10169491Y-8932979D02*
X10159968Y-8913931D01*
X10159968Y-8913931D02*
X10150444Y-8885360D01*
X10150444Y-8885360D02*
X10140920Y-8837741D01*
X10140920Y-8837741D02*
X10140920Y-8799646D01*
X10140920Y-8799646D02*
X10150444Y-8752027D01*
X10150444Y-8752027D02*
X10159968Y-8723455D01*
X10159968Y-8723455D02*
X10169491Y-8704408D01*
X10169491Y-8704408D02*
X10188539Y-8675836D01*
X10188539Y-8675836D02*
X10198063Y-8666312D01*
X10312349Y-8694884D02*
X10331396Y-8694884D01*
X10331396Y-8694884D02*
X10350444Y-8704408D01*
X10350444Y-8704408D02*
X10359968Y-8713931D01*
X10359968Y-8713931D02*
X10369491Y-8732979D01*
X10369491Y-8732979D02*
X10379015Y-8771074D01*
X10379015Y-8771074D02*
X10379015Y-8818693D01*
X10379015Y-8818693D02*
X10369491Y-8856789D01*
X10369491Y-8856789D02*
X10359968Y-8875836D01*
X10359968Y-8875836D02*
X10350444Y-8885360D01*
X10350444Y-8885360D02*
X10331396Y-8894884D01*
X10331396Y-8894884D02*
X10312349Y-8894884D01*
X10312349Y-8894884D02*
X10293301Y-8885360D01*
X10293301Y-8885360D02*
X10283777Y-8875836D01*
X10283777Y-8875836D02*
X10274253Y-8856789D01*
X10274253Y-8856789D02*
X10264730Y-8818693D01*
X10264730Y-8818693D02*
X10264730Y-8771074D01*
X10264730Y-8771074D02*
X10274253Y-8732979D01*
X10274253Y-8732979D02*
X10283777Y-8713931D01*
X10283777Y-8713931D02*
X10293301Y-8704408D01*
X10293301Y-8704408D02*
X10312349Y-8694884D01*
X10617111Y-8894884D02*
X10617111Y-8694884D01*
X10702825Y-8894884D02*
X10702825Y-8790122D01*
X10702825Y-8790122D02*
X10693301Y-8771074D01*
X10693301Y-8771074D02*
X10674253Y-8761550D01*
X10674253Y-8761550D02*
X10645682Y-8761550D01*
X10645682Y-8761550D02*
X10626634Y-8771074D01*
X10626634Y-8771074D02*
X10617111Y-8780598D01*
X10826634Y-8894884D02*
X10807587Y-8885360D01*
X10807587Y-8885360D02*
X10798063Y-8875836D01*
X10798063Y-8875836D02*
X10788539Y-8856789D01*
X10788539Y-8856789D02*
X10788539Y-8799646D01*
X10788539Y-8799646D02*
X10798063Y-8780598D01*
X10798063Y-8780598D02*
X10807587Y-8771074D01*
X10807587Y-8771074D02*
X10826634Y-8761550D01*
X10826634Y-8761550D02*
X10855206Y-8761550D01*
X10855206Y-8761550D02*
X10874253Y-8771074D01*
X10874253Y-8771074D02*
X10883777Y-8780598D01*
X10883777Y-8780598D02*
X10893301Y-8799646D01*
X10893301Y-8799646D02*
X10893301Y-8856789D01*
X10893301Y-8856789D02*
X10883777Y-8875836D01*
X10883777Y-8875836D02*
X10874253Y-8885360D01*
X10874253Y-8885360D02*
X10855206Y-8894884D01*
X10855206Y-8894884D02*
X10826634Y-8894884D01*
X11007587Y-8894884D02*
X10988539Y-8885360D01*
X10988539Y-8885360D02*
X10979015Y-8866312D01*
X10979015Y-8866312D02*
X10979015Y-8694884D01*
X11159968Y-8885360D02*
X11140920Y-8894884D01*
X11140920Y-8894884D02*
X11102825Y-8894884D01*
X11102825Y-8894884D02*
X11083777Y-8885360D01*
X11083777Y-8885360D02*
X11074253Y-8866312D01*
X11074253Y-8866312D02*
X11074253Y-8790122D01*
X11074253Y-8790122D02*
X11083777Y-8771074D01*
X11083777Y-8771074D02*
X11102825Y-8761550D01*
X11102825Y-8761550D02*
X11140920Y-8761550D01*
X11140920Y-8761550D02*
X11159968Y-8771074D01*
X11159968Y-8771074D02*
X11169492Y-8790122D01*
X11169492Y-8790122D02*
X11169492Y-8809170D01*
X11169492Y-8809170D02*
X11074253Y-8828217D01*
X11245682Y-8885360D02*
X11264730Y-8894884D01*
X11264730Y-8894884D02*
X11302825Y-8894884D01*
X11302825Y-8894884D02*
X11321872Y-8885360D01*
X11321872Y-8885360D02*
X11331396Y-8866312D01*
X11331396Y-8866312D02*
X11331396Y-8856789D01*
X11331396Y-8856789D02*
X11321872Y-8837741D01*
X11321872Y-8837741D02*
X11302825Y-8828217D01*
X11302825Y-8828217D02*
X11274253Y-8828217D01*
X11274253Y-8828217D02*
X11255206Y-8818693D01*
X11255206Y-8818693D02*
X11245682Y-8799646D01*
X11245682Y-8799646D02*
X11245682Y-8790122D01*
X11245682Y-8790122D02*
X11255206Y-8771074D01*
X11255206Y-8771074D02*
X11274253Y-8761550D01*
X11274253Y-8761550D02*
X11302825Y-8761550D01*
X11302825Y-8761550D02*
X11321872Y-8771074D01*
X11569492Y-8818693D02*
X11721873Y-8818693D01*
X11645682Y-8894884D02*
X11645682Y-8742503D01*
X12055206Y-8761550D02*
X12055206Y-8894884D01*
X12007587Y-8685360D02*
X11959968Y-8828217D01*
X11959968Y-8828217D02*
X12083777Y-8828217D01*
X12302825Y-8885360D02*
X12321873Y-8894884D01*
X12321873Y-8894884D02*
X12359968Y-8894884D01*
X12359968Y-8894884D02*
X12379015Y-8885360D01*
X12379015Y-8885360D02*
X12388539Y-8866312D01*
X12388539Y-8866312D02*
X12388539Y-8856789D01*
X12388539Y-8856789D02*
X12379015Y-8837741D01*
X12379015Y-8837741D02*
X12359968Y-8828217D01*
X12359968Y-8828217D02*
X12331396Y-8828217D01*
X12331396Y-8828217D02*
X12312349Y-8818693D01*
X12312349Y-8818693D02*
X12302825Y-8799646D01*
X12302825Y-8799646D02*
X12302825Y-8790122D01*
X12302825Y-8790122D02*
X12312349Y-8771074D01*
X12312349Y-8771074D02*
X12331396Y-8761550D01*
X12331396Y-8761550D02*
X12359968Y-8761550D01*
X12359968Y-8761550D02*
X12379015Y-8771074D01*
X12502825Y-8894884D02*
X12483777Y-8885360D01*
X12483777Y-8885360D02*
X12474254Y-8866312D01*
X12474254Y-8866312D02*
X12474254Y-8694884D01*
X12607587Y-8894884D02*
X12588539Y-8885360D01*
X12588539Y-8885360D02*
X12579015Y-8875836D01*
X12579015Y-8875836D02*
X12569492Y-8856789D01*
X12569492Y-8856789D02*
X12569492Y-8799646D01*
X12569492Y-8799646D02*
X12579015Y-8780598D01*
X12579015Y-8780598D02*
X12588539Y-8771074D01*
X12588539Y-8771074D02*
X12607587Y-8761550D01*
X12607587Y-8761550D02*
X12636158Y-8761550D01*
X12636158Y-8761550D02*
X12655206Y-8771074D01*
X12655206Y-8771074D02*
X12664730Y-8780598D01*
X12664730Y-8780598D02*
X12674254Y-8799646D01*
X12674254Y-8799646D02*
X12674254Y-8856789D01*
X12674254Y-8856789D02*
X12664730Y-8875836D01*
X12664730Y-8875836D02*
X12655206Y-8885360D01*
X12655206Y-8885360D02*
X12636158Y-8894884D01*
X12636158Y-8894884D02*
X12607587Y-8894884D01*
X12731396Y-8761550D02*
X12807587Y-8761550D01*
X12759968Y-8694884D02*
X12759968Y-8866312D01*
X12759968Y-8866312D02*
X12769492Y-8885360D01*
X12769492Y-8885360D02*
X12788539Y-8894884D01*
X12788539Y-8894884D02*
X12807587Y-8894884D01*
X12864730Y-8885360D02*
X12883777Y-8894884D01*
X12883777Y-8894884D02*
X12921873Y-8894884D01*
X12921873Y-8894884D02*
X12940920Y-8885360D01*
X12940920Y-8885360D02*
X12950444Y-8866312D01*
X12950444Y-8866312D02*
X12950444Y-8856789D01*
X12950444Y-8856789D02*
X12940920Y-8837741D01*
X12940920Y-8837741D02*
X12921873Y-8828217D01*
X12921873Y-8828217D02*
X12893301Y-8828217D01*
X12893301Y-8828217D02*
X12874254Y-8818693D01*
X12874254Y-8818693D02*
X12864730Y-8799646D01*
X12864730Y-8799646D02*
X12864730Y-8790122D01*
X12864730Y-8790122D02*
X12874254Y-8771074D01*
X12874254Y-8771074D02*
X12893301Y-8761550D01*
X12893301Y-8761550D02*
X12921873Y-8761550D01*
X12921873Y-8761550D02*
X12940920Y-8771074D01*
X13017111Y-8971074D02*
X13026635Y-8961550D01*
X13026635Y-8961550D02*
X13045682Y-8932979D01*
X13045682Y-8932979D02*
X13055206Y-8913931D01*
X13055206Y-8913931D02*
X13064730Y-8885360D01*
X13064730Y-8885360D02*
X13074254Y-8837741D01*
X13074254Y-8837741D02*
X13074254Y-8799646D01*
X13074254Y-8799646D02*
X13064730Y-8752027D01*
X13064730Y-8752027D02*
X13055206Y-8723455D01*
X13055206Y-8723455D02*
X13045682Y-8704408D01*
X13045682Y-8704408D02*
X13026635Y-8675836D01*
X13026635Y-8675836D02*
X13017111Y-8666312D01*
D11*
X6623000Y-9067400D02*
G75*
G03*
X6528000Y-9067400I-47500J0D01*
G01*
X6528000Y-9067400D02*
G75*
G03*
X6623000Y-9067400I47500J0D01*
G01*
D10*
X6921872Y-8958884D02*
X6940920Y-8958884D01*
X6940920Y-8958884D02*
X6959967Y-8968408D01*
X6959967Y-8968408D02*
X6969491Y-8977931D01*
X6969491Y-8977931D02*
X6979015Y-8996979D01*
X6979015Y-8996979D02*
X6988539Y-9035074D01*
X6988539Y-9035074D02*
X6988539Y-9082693D01*
X6988539Y-9082693D02*
X6979015Y-9120789D01*
X6979015Y-9120789D02*
X6969491Y-9139836D01*
X6969491Y-9139836D02*
X6959967Y-9149360D01*
X6959967Y-9149360D02*
X6940920Y-9158884D01*
X6940920Y-9158884D02*
X6921872Y-9158884D01*
X6921872Y-9158884D02*
X6902824Y-9149360D01*
X6902824Y-9149360D02*
X6893301Y-9139836D01*
X6893301Y-9139836D02*
X6883777Y-9120789D01*
X6883777Y-9120789D02*
X6874253Y-9082693D01*
X6874253Y-9082693D02*
X6874253Y-9035074D01*
X6874253Y-9035074D02*
X6883777Y-8996979D01*
X6883777Y-8996979D02*
X6893301Y-8977931D01*
X6893301Y-8977931D02*
X6902824Y-8968408D01*
X6902824Y-8968408D02*
X6921872Y-8958884D01*
X7074253Y-9139836D02*
X7083777Y-9149360D01*
X7083777Y-9149360D02*
X7074253Y-9158884D01*
X7074253Y-9158884D02*
X7064729Y-9149360D01*
X7064729Y-9149360D02*
X7074253Y-9139836D01*
X7074253Y-9139836D02*
X7074253Y-9158884D01*
X7179015Y-9158884D02*
X7217110Y-9158884D01*
X7217110Y-9158884D02*
X7236158Y-9149360D01*
X7236158Y-9149360D02*
X7245682Y-9139836D01*
X7245682Y-9139836D02*
X7264729Y-9111265D01*
X7264729Y-9111265D02*
X7274253Y-9073170D01*
X7274253Y-9073170D02*
X7274253Y-8996979D01*
X7274253Y-8996979D02*
X7264729Y-8977931D01*
X7264729Y-8977931D02*
X7255205Y-8968408D01*
X7255205Y-8968408D02*
X7236158Y-8958884D01*
X7236158Y-8958884D02*
X7198062Y-8958884D01*
X7198062Y-8958884D02*
X7179015Y-8968408D01*
X7179015Y-8968408D02*
X7169491Y-8977931D01*
X7169491Y-8977931D02*
X7159967Y-8996979D01*
X7159967Y-8996979D02*
X7159967Y-9044598D01*
X7159967Y-9044598D02*
X7169491Y-9063646D01*
X7169491Y-9063646D02*
X7179015Y-9073170D01*
X7179015Y-9073170D02*
X7198062Y-9082693D01*
X7198062Y-9082693D02*
X7236158Y-9082693D01*
X7236158Y-9082693D02*
X7255205Y-9073170D01*
X7255205Y-9073170D02*
X7264729Y-9063646D01*
X7264729Y-9063646D02*
X7274253Y-9044598D01*
X7455205Y-8958884D02*
X7359967Y-8958884D01*
X7359967Y-8958884D02*
X7350443Y-9054122D01*
X7350443Y-9054122D02*
X7359967Y-9044598D01*
X7359967Y-9044598D02*
X7379015Y-9035074D01*
X7379015Y-9035074D02*
X7426634Y-9035074D01*
X7426634Y-9035074D02*
X7445682Y-9044598D01*
X7445682Y-9044598D02*
X7455205Y-9054122D01*
X7455205Y-9054122D02*
X7464729Y-9073170D01*
X7464729Y-9073170D02*
X7464729Y-9120789D01*
X7464729Y-9120789D02*
X7455205Y-9139836D01*
X7455205Y-9139836D02*
X7445682Y-9149360D01*
X7445682Y-9149360D02*
X7426634Y-9158884D01*
X7426634Y-9158884D02*
X7379015Y-9158884D01*
X7379015Y-9158884D02*
X7359967Y-9149360D01*
X7359967Y-9149360D02*
X7350443Y-9139836D01*
X7588539Y-8958884D02*
X7607586Y-8958884D01*
X7607586Y-8958884D02*
X7626634Y-8968408D01*
X7626634Y-8968408D02*
X7636158Y-8977931D01*
X7636158Y-8977931D02*
X7645682Y-8996979D01*
X7645682Y-8996979D02*
X7655205Y-9035074D01*
X7655205Y-9035074D02*
X7655205Y-9082693D01*
X7655205Y-9082693D02*
X7645682Y-9120789D01*
X7645682Y-9120789D02*
X7636158Y-9139836D01*
X7636158Y-9139836D02*
X7626634Y-9149360D01*
X7626634Y-9149360D02*
X7607586Y-9158884D01*
X7607586Y-9158884D02*
X7588539Y-9158884D01*
X7588539Y-9158884D02*
X7569491Y-9149360D01*
X7569491Y-9149360D02*
X7559967Y-9139836D01*
X7559967Y-9139836D02*
X7550443Y-9120789D01*
X7550443Y-9120789D02*
X7540920Y-9082693D01*
X7540920Y-9082693D02*
X7540920Y-9035074D01*
X7540920Y-9035074D02*
X7550443Y-8996979D01*
X7550443Y-8996979D02*
X7559967Y-8977931D01*
X7559967Y-8977931D02*
X7569491Y-8968408D01*
X7569491Y-8968408D02*
X7588539Y-8958884D01*
X7740920Y-9158884D02*
X7740920Y-9025550D01*
X7740920Y-9044598D02*
X7750443Y-9035074D01*
X7750443Y-9035074D02*
X7769491Y-9025550D01*
X7769491Y-9025550D02*
X7798063Y-9025550D01*
X7798063Y-9025550D02*
X7817110Y-9035074D01*
X7817110Y-9035074D02*
X7826634Y-9054122D01*
X7826634Y-9054122D02*
X7826634Y-9158884D01*
X7826634Y-9054122D02*
X7836158Y-9035074D01*
X7836158Y-9035074D02*
X7855205Y-9025550D01*
X7855205Y-9025550D02*
X7883777Y-9025550D01*
X7883777Y-9025550D02*
X7902824Y-9035074D01*
X7902824Y-9035074D02*
X7912348Y-9054122D01*
X7912348Y-9054122D02*
X7912348Y-9158884D01*
X8007586Y-9158884D02*
X8007586Y-9025550D01*
X8007586Y-9044598D02*
X8017110Y-9035074D01*
X8017110Y-9035074D02*
X8036158Y-9025550D01*
X8036158Y-9025550D02*
X8064729Y-9025550D01*
X8064729Y-9025550D02*
X8083777Y-9035074D01*
X8083777Y-9035074D02*
X8093301Y-9054122D01*
X8093301Y-9054122D02*
X8093301Y-9158884D01*
X8093301Y-9054122D02*
X8102824Y-9035074D01*
X8102824Y-9035074D02*
X8121872Y-9025550D01*
X8121872Y-9025550D02*
X8150443Y-9025550D01*
X8150443Y-9025550D02*
X8169491Y-9035074D01*
X8169491Y-9035074D02*
X8179015Y-9054122D01*
X8179015Y-9054122D02*
X8179015Y-9158884D01*
X8569491Y-8949360D02*
X8398063Y-9206503D01*
X8826634Y-8958884D02*
X8845682Y-8958884D01*
X8845682Y-8958884D02*
X8864729Y-8968408D01*
X8864729Y-8968408D02*
X8874253Y-8977931D01*
X8874253Y-8977931D02*
X8883777Y-8996979D01*
X8883777Y-8996979D02*
X8893301Y-9035074D01*
X8893301Y-9035074D02*
X8893301Y-9082693D01*
X8893301Y-9082693D02*
X8883777Y-9120789D01*
X8883777Y-9120789D02*
X8874253Y-9139836D01*
X8874253Y-9139836D02*
X8864729Y-9149360D01*
X8864729Y-9149360D02*
X8845682Y-9158884D01*
X8845682Y-9158884D02*
X8826634Y-9158884D01*
X8826634Y-9158884D02*
X8807587Y-9149360D01*
X8807587Y-9149360D02*
X8798063Y-9139836D01*
X8798063Y-9139836D02*
X8788539Y-9120789D01*
X8788539Y-9120789D02*
X8779015Y-9082693D01*
X8779015Y-9082693D02*
X8779015Y-9035074D01*
X8779015Y-9035074D02*
X8788539Y-8996979D01*
X8788539Y-8996979D02*
X8798063Y-8977931D01*
X8798063Y-8977931D02*
X8807587Y-8968408D01*
X8807587Y-8968408D02*
X8826634Y-8958884D01*
X8979015Y-9139836D02*
X8988539Y-9149360D01*
X8988539Y-9149360D02*
X8979015Y-9158884D01*
X8979015Y-9158884D02*
X8969491Y-9149360D01*
X8969491Y-9149360D02*
X8979015Y-9139836D01*
X8979015Y-9139836D02*
X8979015Y-9158884D01*
X9112348Y-8958884D02*
X9131396Y-8958884D01*
X9131396Y-8958884D02*
X9150444Y-8968408D01*
X9150444Y-8968408D02*
X9159968Y-8977931D01*
X9159968Y-8977931D02*
X9169491Y-8996979D01*
X9169491Y-8996979D02*
X9179015Y-9035074D01*
X9179015Y-9035074D02*
X9179015Y-9082693D01*
X9179015Y-9082693D02*
X9169491Y-9120789D01*
X9169491Y-9120789D02*
X9159968Y-9139836D01*
X9159968Y-9139836D02*
X9150444Y-9149360D01*
X9150444Y-9149360D02*
X9131396Y-9158884D01*
X9131396Y-9158884D02*
X9112348Y-9158884D01*
X9112348Y-9158884D02*
X9093301Y-9149360D01*
X9093301Y-9149360D02*
X9083777Y-9139836D01*
X9083777Y-9139836D02*
X9074253Y-9120789D01*
X9074253Y-9120789D02*
X9064729Y-9082693D01*
X9064729Y-9082693D02*
X9064729Y-9035074D01*
X9064729Y-9035074D02*
X9074253Y-8996979D01*
X9074253Y-8996979D02*
X9083777Y-8977931D01*
X9083777Y-8977931D02*
X9093301Y-8968408D01*
X9093301Y-8968408D02*
X9112348Y-8958884D01*
X9245682Y-8958884D02*
X9369491Y-8958884D01*
X9369491Y-8958884D02*
X9302825Y-9035074D01*
X9302825Y-9035074D02*
X9331396Y-9035074D01*
X9331396Y-9035074D02*
X9350444Y-9044598D01*
X9350444Y-9044598D02*
X9359968Y-9054122D01*
X9359968Y-9054122D02*
X9369491Y-9073170D01*
X9369491Y-9073170D02*
X9369491Y-9120789D01*
X9369491Y-9120789D02*
X9359968Y-9139836D01*
X9359968Y-9139836D02*
X9350444Y-9149360D01*
X9350444Y-9149360D02*
X9331396Y-9158884D01*
X9331396Y-9158884D02*
X9274253Y-9158884D01*
X9274253Y-9158884D02*
X9255206Y-9149360D01*
X9255206Y-9149360D02*
X9245682Y-9139836D01*
X9436158Y-8958884D02*
X9569491Y-8958884D01*
X9569491Y-8958884D02*
X9483777Y-9158884D01*
X9731396Y-9025550D02*
X9731396Y-9158884D01*
X9683777Y-8949360D02*
X9636158Y-9092217D01*
X9636158Y-9092217D02*
X9759968Y-9092217D01*
X9826634Y-8958884D02*
X9826634Y-8996979D01*
X9902825Y-8958884D02*
X9902825Y-8996979D01*
X10198063Y-9235074D02*
X10188539Y-9225550D01*
X10188539Y-9225550D02*
X10169491Y-9196979D01*
X10169491Y-9196979D02*
X10159968Y-9177931D01*
X10159968Y-9177931D02*
X10150444Y-9149360D01*
X10150444Y-9149360D02*
X10140920Y-9101741D01*
X10140920Y-9101741D02*
X10140920Y-9063646D01*
X10140920Y-9063646D02*
X10150444Y-9016027D01*
X10150444Y-9016027D02*
X10159968Y-8987455D01*
X10159968Y-8987455D02*
X10169491Y-8968408D01*
X10169491Y-8968408D02*
X10188539Y-8939836D01*
X10188539Y-8939836D02*
X10198063Y-8930312D01*
X10302825Y-9044598D02*
X10283777Y-9035074D01*
X10283777Y-9035074D02*
X10274253Y-9025550D01*
X10274253Y-9025550D02*
X10264730Y-9006503D01*
X10264730Y-9006503D02*
X10264730Y-8996979D01*
X10264730Y-8996979D02*
X10274253Y-8977931D01*
X10274253Y-8977931D02*
X10283777Y-8968408D01*
X10283777Y-8968408D02*
X10302825Y-8958884D01*
X10302825Y-8958884D02*
X10340920Y-8958884D01*
X10340920Y-8958884D02*
X10359968Y-8968408D01*
X10359968Y-8968408D02*
X10369491Y-8977931D01*
X10369491Y-8977931D02*
X10379015Y-8996979D01*
X10379015Y-8996979D02*
X10379015Y-9006503D01*
X10379015Y-9006503D02*
X10369491Y-9025550D01*
X10369491Y-9025550D02*
X10359968Y-9035074D01*
X10359968Y-9035074D02*
X10340920Y-9044598D01*
X10340920Y-9044598D02*
X10302825Y-9044598D01*
X10302825Y-9044598D02*
X10283777Y-9054122D01*
X10283777Y-9054122D02*
X10274253Y-9063646D01*
X10274253Y-9063646D02*
X10264730Y-9082693D01*
X10264730Y-9082693D02*
X10264730Y-9120789D01*
X10264730Y-9120789D02*
X10274253Y-9139836D01*
X10274253Y-9139836D02*
X10283777Y-9149360D01*
X10283777Y-9149360D02*
X10302825Y-9158884D01*
X10302825Y-9158884D02*
X10340920Y-9158884D01*
X10340920Y-9158884D02*
X10359968Y-9149360D01*
X10359968Y-9149360D02*
X10369491Y-9139836D01*
X10369491Y-9139836D02*
X10379015Y-9120789D01*
X10379015Y-9120789D02*
X10379015Y-9082693D01*
X10379015Y-9082693D02*
X10369491Y-9063646D01*
X10369491Y-9063646D02*
X10359968Y-9054122D01*
X10359968Y-9054122D02*
X10340920Y-9044598D01*
X10617111Y-9158884D02*
X10617111Y-8958884D01*
X10702825Y-9158884D02*
X10702825Y-9054122D01*
X10702825Y-9054122D02*
X10693301Y-9035074D01*
X10693301Y-9035074D02*
X10674253Y-9025550D01*
X10674253Y-9025550D02*
X10645682Y-9025550D01*
X10645682Y-9025550D02*
X10626634Y-9035074D01*
X10626634Y-9035074D02*
X10617111Y-9044598D01*
X10826634Y-9158884D02*
X10807587Y-9149360D01*
X10807587Y-9149360D02*
X10798063Y-9139836D01*
X10798063Y-9139836D02*
X10788539Y-9120789D01*
X10788539Y-9120789D02*
X10788539Y-9063646D01*
X10788539Y-9063646D02*
X10798063Y-9044598D01*
X10798063Y-9044598D02*
X10807587Y-9035074D01*
X10807587Y-9035074D02*
X10826634Y-9025550D01*
X10826634Y-9025550D02*
X10855206Y-9025550D01*
X10855206Y-9025550D02*
X10874253Y-9035074D01*
X10874253Y-9035074D02*
X10883777Y-9044598D01*
X10883777Y-9044598D02*
X10893301Y-9063646D01*
X10893301Y-9063646D02*
X10893301Y-9120789D01*
X10893301Y-9120789D02*
X10883777Y-9139836D01*
X10883777Y-9139836D02*
X10874253Y-9149360D01*
X10874253Y-9149360D02*
X10855206Y-9158884D01*
X10855206Y-9158884D02*
X10826634Y-9158884D01*
X11007587Y-9158884D02*
X10988539Y-9149360D01*
X10988539Y-9149360D02*
X10979015Y-9130312D01*
X10979015Y-9130312D02*
X10979015Y-8958884D01*
X11159968Y-9149360D02*
X11140920Y-9158884D01*
X11140920Y-9158884D02*
X11102825Y-9158884D01*
X11102825Y-9158884D02*
X11083777Y-9149360D01*
X11083777Y-9149360D02*
X11074253Y-9130312D01*
X11074253Y-9130312D02*
X11074253Y-9054122D01*
X11074253Y-9054122D02*
X11083777Y-9035074D01*
X11083777Y-9035074D02*
X11102825Y-9025550D01*
X11102825Y-9025550D02*
X11140920Y-9025550D01*
X11140920Y-9025550D02*
X11159968Y-9035074D01*
X11159968Y-9035074D02*
X11169492Y-9054122D01*
X11169492Y-9054122D02*
X11169492Y-9073170D01*
X11169492Y-9073170D02*
X11074253Y-9092217D01*
X11245682Y-9149360D02*
X11264730Y-9158884D01*
X11264730Y-9158884D02*
X11302825Y-9158884D01*
X11302825Y-9158884D02*
X11321872Y-9149360D01*
X11321872Y-9149360D02*
X11331396Y-9130312D01*
X11331396Y-9130312D02*
X11331396Y-9120789D01*
X11331396Y-9120789D02*
X11321872Y-9101741D01*
X11321872Y-9101741D02*
X11302825Y-9092217D01*
X11302825Y-9092217D02*
X11274253Y-9092217D01*
X11274253Y-9092217D02*
X11255206Y-9082693D01*
X11255206Y-9082693D02*
X11245682Y-9063646D01*
X11245682Y-9063646D02*
X11245682Y-9054122D01*
X11245682Y-9054122D02*
X11255206Y-9035074D01*
X11255206Y-9035074D02*
X11274253Y-9025550D01*
X11274253Y-9025550D02*
X11302825Y-9025550D01*
X11302825Y-9025550D02*
X11321872Y-9035074D01*
X11398063Y-9235074D02*
X11407587Y-9225550D01*
X11407587Y-9225550D02*
X11426634Y-9196979D01*
X11426634Y-9196979D02*
X11436158Y-9177931D01*
X11436158Y-9177931D02*
X11445682Y-9149360D01*
X11445682Y-9149360D02*
X11455206Y-9101741D01*
X11455206Y-9101741D02*
X11455206Y-9063646D01*
X11455206Y-9063646D02*
X11445682Y-9016027D01*
X11445682Y-9016027D02*
X11436158Y-8987455D01*
X11436158Y-8987455D02*
X11426634Y-8968408D01*
X11426634Y-8968408D02*
X11407587Y-8939836D01*
X11407587Y-8939836D02*
X11398063Y-8930312D01*
D11*
X6573000Y-9281400D02*
X6573000Y-9381400D01*
X6523000Y-9331400D02*
X6623000Y-9331400D01*
D10*
X6988539Y-9422884D02*
X6874253Y-9422884D01*
X6931396Y-9422884D02*
X6931396Y-9222884D01*
X6931396Y-9222884D02*
X6912348Y-9251455D01*
X6912348Y-9251455D02*
X6893301Y-9270503D01*
X6893301Y-9270503D02*
X6874253Y-9280027D01*
X7074253Y-9403836D02*
X7083777Y-9413360D01*
X7083777Y-9413360D02*
X7074253Y-9422884D01*
X7074253Y-9422884D02*
X7064729Y-9413360D01*
X7064729Y-9413360D02*
X7074253Y-9403836D01*
X7074253Y-9403836D02*
X7074253Y-9422884D01*
X7207586Y-9222884D02*
X7226634Y-9222884D01*
X7226634Y-9222884D02*
X7245682Y-9232408D01*
X7245682Y-9232408D02*
X7255205Y-9241931D01*
X7255205Y-9241931D02*
X7264729Y-9260979D01*
X7264729Y-9260979D02*
X7274253Y-9299074D01*
X7274253Y-9299074D02*
X7274253Y-9346693D01*
X7274253Y-9346693D02*
X7264729Y-9384789D01*
X7264729Y-9384789D02*
X7255205Y-9403836D01*
X7255205Y-9403836D02*
X7245682Y-9413360D01*
X7245682Y-9413360D02*
X7226634Y-9422884D01*
X7226634Y-9422884D02*
X7207586Y-9422884D01*
X7207586Y-9422884D02*
X7188539Y-9413360D01*
X7188539Y-9413360D02*
X7179015Y-9403836D01*
X7179015Y-9403836D02*
X7169491Y-9384789D01*
X7169491Y-9384789D02*
X7159967Y-9346693D01*
X7159967Y-9346693D02*
X7159967Y-9299074D01*
X7159967Y-9299074D02*
X7169491Y-9260979D01*
X7169491Y-9260979D02*
X7179015Y-9241931D01*
X7179015Y-9241931D02*
X7188539Y-9232408D01*
X7188539Y-9232408D02*
X7207586Y-9222884D01*
X7398062Y-9222884D02*
X7417110Y-9222884D01*
X7417110Y-9222884D02*
X7436158Y-9232408D01*
X7436158Y-9232408D02*
X7445682Y-9241931D01*
X7445682Y-9241931D02*
X7455205Y-9260979D01*
X7455205Y-9260979D02*
X7464729Y-9299074D01*
X7464729Y-9299074D02*
X7464729Y-9346693D01*
X7464729Y-9346693D02*
X7455205Y-9384789D01*
X7455205Y-9384789D02*
X7445682Y-9403836D01*
X7445682Y-9403836D02*
X7436158Y-9413360D01*
X7436158Y-9413360D02*
X7417110Y-9422884D01*
X7417110Y-9422884D02*
X7398062Y-9422884D01*
X7398062Y-9422884D02*
X7379015Y-9413360D01*
X7379015Y-9413360D02*
X7369491Y-9403836D01*
X7369491Y-9403836D02*
X7359967Y-9384789D01*
X7359967Y-9384789D02*
X7350443Y-9346693D01*
X7350443Y-9346693D02*
X7350443Y-9299074D01*
X7350443Y-9299074D02*
X7359967Y-9260979D01*
X7359967Y-9260979D02*
X7369491Y-9241931D01*
X7369491Y-9241931D02*
X7379015Y-9232408D01*
X7379015Y-9232408D02*
X7398062Y-9222884D01*
X7588539Y-9222884D02*
X7607586Y-9222884D01*
X7607586Y-9222884D02*
X7626634Y-9232408D01*
X7626634Y-9232408D02*
X7636158Y-9241931D01*
X7636158Y-9241931D02*
X7645682Y-9260979D01*
X7645682Y-9260979D02*
X7655205Y-9299074D01*
X7655205Y-9299074D02*
X7655205Y-9346693D01*
X7655205Y-9346693D02*
X7645682Y-9384789D01*
X7645682Y-9384789D02*
X7636158Y-9403836D01*
X7636158Y-9403836D02*
X7626634Y-9413360D01*
X7626634Y-9413360D02*
X7607586Y-9422884D01*
X7607586Y-9422884D02*
X7588539Y-9422884D01*
X7588539Y-9422884D02*
X7569491Y-9413360D01*
X7569491Y-9413360D02*
X7559967Y-9403836D01*
X7559967Y-9403836D02*
X7550443Y-9384789D01*
X7550443Y-9384789D02*
X7540920Y-9346693D01*
X7540920Y-9346693D02*
X7540920Y-9299074D01*
X7540920Y-9299074D02*
X7550443Y-9260979D01*
X7550443Y-9260979D02*
X7559967Y-9241931D01*
X7559967Y-9241931D02*
X7569491Y-9232408D01*
X7569491Y-9232408D02*
X7588539Y-9222884D01*
X7740920Y-9422884D02*
X7740920Y-9289550D01*
X7740920Y-9308598D02*
X7750443Y-9299074D01*
X7750443Y-9299074D02*
X7769491Y-9289550D01*
X7769491Y-9289550D02*
X7798063Y-9289550D01*
X7798063Y-9289550D02*
X7817110Y-9299074D01*
X7817110Y-9299074D02*
X7826634Y-9318122D01*
X7826634Y-9318122D02*
X7826634Y-9422884D01*
X7826634Y-9318122D02*
X7836158Y-9299074D01*
X7836158Y-9299074D02*
X7855205Y-9289550D01*
X7855205Y-9289550D02*
X7883777Y-9289550D01*
X7883777Y-9289550D02*
X7902824Y-9299074D01*
X7902824Y-9299074D02*
X7912348Y-9318122D01*
X7912348Y-9318122D02*
X7912348Y-9422884D01*
X8007586Y-9422884D02*
X8007586Y-9289550D01*
X8007586Y-9308598D02*
X8017110Y-9299074D01*
X8017110Y-9299074D02*
X8036158Y-9289550D01*
X8036158Y-9289550D02*
X8064729Y-9289550D01*
X8064729Y-9289550D02*
X8083777Y-9299074D01*
X8083777Y-9299074D02*
X8093301Y-9318122D01*
X8093301Y-9318122D02*
X8093301Y-9422884D01*
X8093301Y-9318122D02*
X8102824Y-9299074D01*
X8102824Y-9299074D02*
X8121872Y-9289550D01*
X8121872Y-9289550D02*
X8150443Y-9289550D01*
X8150443Y-9289550D02*
X8169491Y-9299074D01*
X8169491Y-9299074D02*
X8179015Y-9318122D01*
X8179015Y-9318122D02*
X8179015Y-9422884D01*
X8569491Y-9213360D02*
X8398063Y-9470503D01*
X8826634Y-9222884D02*
X8845682Y-9222884D01*
X8845682Y-9222884D02*
X8864729Y-9232408D01*
X8864729Y-9232408D02*
X8874253Y-9241931D01*
X8874253Y-9241931D02*
X8883777Y-9260979D01*
X8883777Y-9260979D02*
X8893301Y-9299074D01*
X8893301Y-9299074D02*
X8893301Y-9346693D01*
X8893301Y-9346693D02*
X8883777Y-9384789D01*
X8883777Y-9384789D02*
X8874253Y-9403836D01*
X8874253Y-9403836D02*
X8864729Y-9413360D01*
X8864729Y-9413360D02*
X8845682Y-9422884D01*
X8845682Y-9422884D02*
X8826634Y-9422884D01*
X8826634Y-9422884D02*
X8807587Y-9413360D01*
X8807587Y-9413360D02*
X8798063Y-9403836D01*
X8798063Y-9403836D02*
X8788539Y-9384789D01*
X8788539Y-9384789D02*
X8779015Y-9346693D01*
X8779015Y-9346693D02*
X8779015Y-9299074D01*
X8779015Y-9299074D02*
X8788539Y-9260979D01*
X8788539Y-9260979D02*
X8798063Y-9241931D01*
X8798063Y-9241931D02*
X8807587Y-9232408D01*
X8807587Y-9232408D02*
X8826634Y-9222884D01*
X8979015Y-9403836D02*
X8988539Y-9413360D01*
X8988539Y-9413360D02*
X8979015Y-9422884D01*
X8979015Y-9422884D02*
X8969491Y-9413360D01*
X8969491Y-9413360D02*
X8979015Y-9403836D01*
X8979015Y-9403836D02*
X8979015Y-9422884D01*
X9112348Y-9222884D02*
X9131396Y-9222884D01*
X9131396Y-9222884D02*
X9150444Y-9232408D01*
X9150444Y-9232408D02*
X9159968Y-9241931D01*
X9159968Y-9241931D02*
X9169491Y-9260979D01*
X9169491Y-9260979D02*
X9179015Y-9299074D01*
X9179015Y-9299074D02*
X9179015Y-9346693D01*
X9179015Y-9346693D02*
X9169491Y-9384789D01*
X9169491Y-9384789D02*
X9159968Y-9403836D01*
X9159968Y-9403836D02*
X9150444Y-9413360D01*
X9150444Y-9413360D02*
X9131396Y-9422884D01*
X9131396Y-9422884D02*
X9112348Y-9422884D01*
X9112348Y-9422884D02*
X9093301Y-9413360D01*
X9093301Y-9413360D02*
X9083777Y-9403836D01*
X9083777Y-9403836D02*
X9074253Y-9384789D01*
X9074253Y-9384789D02*
X9064729Y-9346693D01*
X9064729Y-9346693D02*
X9064729Y-9299074D01*
X9064729Y-9299074D02*
X9074253Y-9260979D01*
X9074253Y-9260979D02*
X9083777Y-9241931D01*
X9083777Y-9241931D02*
X9093301Y-9232408D01*
X9093301Y-9232408D02*
X9112348Y-9222884D01*
X9245682Y-9222884D02*
X9369491Y-9222884D01*
X9369491Y-9222884D02*
X9302825Y-9299074D01*
X9302825Y-9299074D02*
X9331396Y-9299074D01*
X9331396Y-9299074D02*
X9350444Y-9308598D01*
X9350444Y-9308598D02*
X9359968Y-9318122D01*
X9359968Y-9318122D02*
X9369491Y-9337170D01*
X9369491Y-9337170D02*
X9369491Y-9384789D01*
X9369491Y-9384789D02*
X9359968Y-9403836D01*
X9359968Y-9403836D02*
X9350444Y-9413360D01*
X9350444Y-9413360D02*
X9331396Y-9422884D01*
X9331396Y-9422884D02*
X9274253Y-9422884D01*
X9274253Y-9422884D02*
X9255206Y-9413360D01*
X9255206Y-9413360D02*
X9245682Y-9403836D01*
X9464729Y-9422884D02*
X9502825Y-9422884D01*
X9502825Y-9422884D02*
X9521872Y-9413360D01*
X9521872Y-9413360D02*
X9531396Y-9403836D01*
X9531396Y-9403836D02*
X9550444Y-9375265D01*
X9550444Y-9375265D02*
X9559968Y-9337170D01*
X9559968Y-9337170D02*
X9559968Y-9260979D01*
X9559968Y-9260979D02*
X9550444Y-9241931D01*
X9550444Y-9241931D02*
X9540920Y-9232408D01*
X9540920Y-9232408D02*
X9521872Y-9222884D01*
X9521872Y-9222884D02*
X9483777Y-9222884D01*
X9483777Y-9222884D02*
X9464729Y-9232408D01*
X9464729Y-9232408D02*
X9455206Y-9241931D01*
X9455206Y-9241931D02*
X9445682Y-9260979D01*
X9445682Y-9260979D02*
X9445682Y-9308598D01*
X9445682Y-9308598D02*
X9455206Y-9327646D01*
X9455206Y-9327646D02*
X9464729Y-9337170D01*
X9464729Y-9337170D02*
X9483777Y-9346693D01*
X9483777Y-9346693D02*
X9521872Y-9346693D01*
X9521872Y-9346693D02*
X9540920Y-9337170D01*
X9540920Y-9337170D02*
X9550444Y-9327646D01*
X9550444Y-9327646D02*
X9559968Y-9308598D01*
X9731396Y-9289550D02*
X9731396Y-9422884D01*
X9683777Y-9213360D02*
X9636158Y-9356217D01*
X9636158Y-9356217D02*
X9759968Y-9356217D01*
X9826634Y-9222884D02*
X9826634Y-9260979D01*
X9902825Y-9222884D02*
X9902825Y-9260979D01*
X10198063Y-9499074D02*
X10188539Y-9489550D01*
X10188539Y-9489550D02*
X10169491Y-9460979D01*
X10169491Y-9460979D02*
X10159968Y-9441931D01*
X10159968Y-9441931D02*
X10150444Y-9413360D01*
X10150444Y-9413360D02*
X10140920Y-9365741D01*
X10140920Y-9365741D02*
X10140920Y-9327646D01*
X10140920Y-9327646D02*
X10150444Y-9280027D01*
X10150444Y-9280027D02*
X10159968Y-9251455D01*
X10159968Y-9251455D02*
X10169491Y-9232408D01*
X10169491Y-9232408D02*
X10188539Y-9203836D01*
X10188539Y-9203836D02*
X10198063Y-9194312D01*
X10379015Y-9422884D02*
X10264730Y-9422884D01*
X10321872Y-9422884D02*
X10321872Y-9222884D01*
X10321872Y-9222884D02*
X10302825Y-9251455D01*
X10302825Y-9251455D02*
X10283777Y-9270503D01*
X10283777Y-9270503D02*
X10264730Y-9280027D01*
X10502825Y-9222884D02*
X10521872Y-9222884D01*
X10521872Y-9222884D02*
X10540920Y-9232408D01*
X10540920Y-9232408D02*
X10550444Y-9241931D01*
X10550444Y-9241931D02*
X10559968Y-9260979D01*
X10559968Y-9260979D02*
X10569491Y-9299074D01*
X10569491Y-9299074D02*
X10569491Y-9346693D01*
X10569491Y-9346693D02*
X10559968Y-9384789D01*
X10559968Y-9384789D02*
X10550444Y-9403836D01*
X10550444Y-9403836D02*
X10540920Y-9413360D01*
X10540920Y-9413360D02*
X10521872Y-9422884D01*
X10521872Y-9422884D02*
X10502825Y-9422884D01*
X10502825Y-9422884D02*
X10483777Y-9413360D01*
X10483777Y-9413360D02*
X10474253Y-9403836D01*
X10474253Y-9403836D02*
X10464730Y-9384789D01*
X10464730Y-9384789D02*
X10455206Y-9346693D01*
X10455206Y-9346693D02*
X10455206Y-9299074D01*
X10455206Y-9299074D02*
X10464730Y-9260979D01*
X10464730Y-9260979D02*
X10474253Y-9241931D01*
X10474253Y-9241931D02*
X10483777Y-9232408D01*
X10483777Y-9232408D02*
X10502825Y-9222884D01*
X10807587Y-9422884D02*
X10807587Y-9222884D01*
X10893301Y-9422884D02*
X10893301Y-9318122D01*
X10893301Y-9318122D02*
X10883777Y-9299074D01*
X10883777Y-9299074D02*
X10864730Y-9289550D01*
X10864730Y-9289550D02*
X10836158Y-9289550D01*
X10836158Y-9289550D02*
X10817111Y-9299074D01*
X10817111Y-9299074D02*
X10807587Y-9308598D01*
X11017111Y-9422884D02*
X10998063Y-9413360D01*
X10998063Y-9413360D02*
X10988539Y-9403836D01*
X10988539Y-9403836D02*
X10979015Y-9384789D01*
X10979015Y-9384789D02*
X10979015Y-9327646D01*
X10979015Y-9327646D02*
X10988539Y-9308598D01*
X10988539Y-9308598D02*
X10998063Y-9299074D01*
X10998063Y-9299074D02*
X11017111Y-9289550D01*
X11017111Y-9289550D02*
X11045682Y-9289550D01*
X11045682Y-9289550D02*
X11064730Y-9299074D01*
X11064730Y-9299074D02*
X11074253Y-9308598D01*
X11074253Y-9308598D02*
X11083777Y-9327646D01*
X11083777Y-9327646D02*
X11083777Y-9384789D01*
X11083777Y-9384789D02*
X11074253Y-9403836D01*
X11074253Y-9403836D02*
X11064730Y-9413360D01*
X11064730Y-9413360D02*
X11045682Y-9422884D01*
X11045682Y-9422884D02*
X11017111Y-9422884D01*
X11198063Y-9422884D02*
X11179015Y-9413360D01*
X11179015Y-9413360D02*
X11169492Y-9394312D01*
X11169492Y-9394312D02*
X11169492Y-9222884D01*
X11350444Y-9413360D02*
X11331396Y-9422884D01*
X11331396Y-9422884D02*
X11293301Y-9422884D01*
X11293301Y-9422884D02*
X11274253Y-9413360D01*
X11274253Y-9413360D02*
X11264730Y-9394312D01*
X11264730Y-9394312D02*
X11264730Y-9318122D01*
X11264730Y-9318122D02*
X11274253Y-9299074D01*
X11274253Y-9299074D02*
X11293301Y-9289550D01*
X11293301Y-9289550D02*
X11331396Y-9289550D01*
X11331396Y-9289550D02*
X11350444Y-9299074D01*
X11350444Y-9299074D02*
X11359968Y-9318122D01*
X11359968Y-9318122D02*
X11359968Y-9337170D01*
X11359968Y-9337170D02*
X11264730Y-9356217D01*
X11436158Y-9413360D02*
X11455206Y-9422884D01*
X11455206Y-9422884D02*
X11493301Y-9422884D01*
X11493301Y-9422884D02*
X11512349Y-9413360D01*
X11512349Y-9413360D02*
X11521872Y-9394312D01*
X11521872Y-9394312D02*
X11521872Y-9384789D01*
X11521872Y-9384789D02*
X11512349Y-9365741D01*
X11512349Y-9365741D02*
X11493301Y-9356217D01*
X11493301Y-9356217D02*
X11464730Y-9356217D01*
X11464730Y-9356217D02*
X11445682Y-9346693D01*
X11445682Y-9346693D02*
X11436158Y-9327646D01*
X11436158Y-9327646D02*
X11436158Y-9318122D01*
X11436158Y-9318122D02*
X11445682Y-9299074D01*
X11445682Y-9299074D02*
X11464730Y-9289550D01*
X11464730Y-9289550D02*
X11493301Y-9289550D01*
X11493301Y-9289550D02*
X11512349Y-9299074D01*
X11759968Y-9346693D02*
X11912349Y-9346693D01*
X11836158Y-9422884D02*
X11836158Y-9270503D01*
X12140920Y-9222884D02*
X12264730Y-9222884D01*
X12264730Y-9222884D02*
X12198063Y-9299074D01*
X12198063Y-9299074D02*
X12226634Y-9299074D01*
X12226634Y-9299074D02*
X12245682Y-9308598D01*
X12245682Y-9308598D02*
X12255206Y-9318122D01*
X12255206Y-9318122D02*
X12264730Y-9337170D01*
X12264730Y-9337170D02*
X12264730Y-9384789D01*
X12264730Y-9384789D02*
X12255206Y-9403836D01*
X12255206Y-9403836D02*
X12245682Y-9413360D01*
X12245682Y-9413360D02*
X12226634Y-9422884D01*
X12226634Y-9422884D02*
X12169492Y-9422884D01*
X12169492Y-9422884D02*
X12150444Y-9413360D01*
X12150444Y-9413360D02*
X12140920Y-9403836D01*
X12493301Y-9413360D02*
X12512349Y-9422884D01*
X12512349Y-9422884D02*
X12550444Y-9422884D01*
X12550444Y-9422884D02*
X12569492Y-9413360D01*
X12569492Y-9413360D02*
X12579015Y-9394312D01*
X12579015Y-9394312D02*
X12579015Y-9384789D01*
X12579015Y-9384789D02*
X12569492Y-9365741D01*
X12569492Y-9365741D02*
X12550444Y-9356217D01*
X12550444Y-9356217D02*
X12521873Y-9356217D01*
X12521873Y-9356217D02*
X12502825Y-9346693D01*
X12502825Y-9346693D02*
X12493301Y-9327646D01*
X12493301Y-9327646D02*
X12493301Y-9318122D01*
X12493301Y-9318122D02*
X12502825Y-9299074D01*
X12502825Y-9299074D02*
X12521873Y-9289550D01*
X12521873Y-9289550D02*
X12550444Y-9289550D01*
X12550444Y-9289550D02*
X12569492Y-9299074D01*
X12693301Y-9422884D02*
X12674254Y-9413360D01*
X12674254Y-9413360D02*
X12664730Y-9394312D01*
X12664730Y-9394312D02*
X12664730Y-9222884D01*
X12798063Y-9422884D02*
X12779015Y-9413360D01*
X12779015Y-9413360D02*
X12769492Y-9403836D01*
X12769492Y-9403836D02*
X12759968Y-9384789D01*
X12759968Y-9384789D02*
X12759968Y-9327646D01*
X12759968Y-9327646D02*
X12769492Y-9308598D01*
X12769492Y-9308598D02*
X12779015Y-9299074D01*
X12779015Y-9299074D02*
X12798063Y-9289550D01*
X12798063Y-9289550D02*
X12826635Y-9289550D01*
X12826635Y-9289550D02*
X12845682Y-9299074D01*
X12845682Y-9299074D02*
X12855206Y-9308598D01*
X12855206Y-9308598D02*
X12864730Y-9327646D01*
X12864730Y-9327646D02*
X12864730Y-9384789D01*
X12864730Y-9384789D02*
X12855206Y-9403836D01*
X12855206Y-9403836D02*
X12845682Y-9413360D01*
X12845682Y-9413360D02*
X12826635Y-9422884D01*
X12826635Y-9422884D02*
X12798063Y-9422884D01*
X12921873Y-9289550D02*
X12998063Y-9289550D01*
X12950444Y-9222884D02*
X12950444Y-9394312D01*
X12950444Y-9394312D02*
X12959968Y-9413360D01*
X12959968Y-9413360D02*
X12979015Y-9422884D01*
X12979015Y-9422884D02*
X12998063Y-9422884D01*
X13055206Y-9413360D02*
X13074254Y-9422884D01*
X13074254Y-9422884D02*
X13112349Y-9422884D01*
X13112349Y-9422884D02*
X13131396Y-9413360D01*
X13131396Y-9413360D02*
X13140920Y-9394312D01*
X13140920Y-9394312D02*
X13140920Y-9384789D01*
X13140920Y-9384789D02*
X13131396Y-9365741D01*
X13131396Y-9365741D02*
X13112349Y-9356217D01*
X13112349Y-9356217D02*
X13083777Y-9356217D01*
X13083777Y-9356217D02*
X13064730Y-9346693D01*
X13064730Y-9346693D02*
X13055206Y-9327646D01*
X13055206Y-9327646D02*
X13055206Y-9318122D01*
X13055206Y-9318122D02*
X13064730Y-9299074D01*
X13064730Y-9299074D02*
X13083777Y-9289550D01*
X13083777Y-9289550D02*
X13112349Y-9289550D01*
X13112349Y-9289550D02*
X13131396Y-9299074D01*
X13207587Y-9499074D02*
X13217111Y-9489550D01*
X13217111Y-9489550D02*
X13236158Y-9460979D01*
X13236158Y-9460979D02*
X13245682Y-9441931D01*
X13245682Y-9441931D02*
X13255206Y-9413360D01*
X13255206Y-9413360D02*
X13264730Y-9365741D01*
X13264730Y-9365741D02*
X13264730Y-9327646D01*
X13264730Y-9327646D02*
X13255206Y-9280027D01*
X13255206Y-9280027D02*
X13245682Y-9251455D01*
X13245682Y-9251455D02*
X13236158Y-9232408D01*
X13236158Y-9232408D02*
X13217111Y-9203836D01*
X13217111Y-9203836D02*
X13207587Y-9194312D01*
M02*
