G04 #@! TF.GenerationSoftware,KiCad,Pcbnew,7.0.11+1*
G04 #@! TF.ProjectId,radwag_scale,72616477-6167-45f7-9363-616c652e6b69,rev?*
G04 #@! TF.SameCoordinates,Original*
G04 #@! TF.FileFunction,Copper,L1,Top*
G04 #@! TF.FilePolarity,Positive*
%FSLAX46Y46*%
G04 Gerber Fmt 4.6, Leading zero omitted, Abs format (unit mm)*
%MOMM*%
%LPD*%
G01*
G04 APERTURE LIST*
G04 #@! TA.AperFunction,Profile*
%ADD10C,0.200000*%
G04 #@! TD*
G04 #@! TA.AperFunction,SMDPad,CuDef*
%ADD11R,1.450000X0.600000*%
G04 #@! TD*
G04 #@! TA.AperFunction,SMDPad,CuDef*
%ADD12R,1.450000X0.300000*%
G04 #@! TD*
G04 #@! TA.AperFunction,ComponentPad*
%ADD13O,2.100000X1.000000*%
G04 #@! TD*
G04 #@! TA.AperFunction,ComponentPad*
%ADD14O,1.600000X1.000000*%
G04 #@! TD*
G04 #@! TA.AperFunction,ComponentPad*
%ADD15R,3.500000X3.500000*%
G04 #@! TD*
G04 #@! TA.AperFunction,ComponentPad*
%ADD16O,1.950000X1.700000*%
G04 #@! TD*
G04 #@! TA.AperFunction,ComponentPad*
%ADD17R,1.700000X1.700000*%
G04 #@! TD*
G04 #@! TA.AperFunction,ComponentPad*
%ADD18O,1.700000X1.700000*%
G04 #@! TD*
G04 #@! TA.AperFunction,ComponentPad*
%ADD19R,2.540000X2.540000*%
G04 #@! TD*
G04 #@! TA.AperFunction,ComponentPad*
%ADD20C,2.540000*%
G04 #@! TD*
G04 #@! TA.AperFunction,ComponentPad*
%ADD21O,2.000000X1.700000*%
G04 #@! TD*
G04 #@! TA.AperFunction,Conductor*
%ADD22C,0.600000*%
G04 #@! TD*
G04 APERTURE END LIST*
D10*
X66330000Y-35560000D02*
X140716000Y-35560000D01*
X140716000Y-81534000D01*
X66330000Y-81534000D01*
X66330000Y-35560000D01*
D11*
X134115000Y-61600000D03*
X134115000Y-60800000D03*
D12*
X134115000Y-59650000D03*
X134115000Y-58650000D03*
X134115000Y-58150000D03*
X134115000Y-57150000D03*
D11*
X134115000Y-56000000D03*
X134115000Y-55200000D03*
X134115000Y-55200000D03*
X134115000Y-56000000D03*
D12*
X134115000Y-56650000D03*
X134115000Y-57650000D03*
X134115000Y-59150000D03*
X134115000Y-60150000D03*
D11*
X134115000Y-60800000D03*
X134115000Y-61600000D03*
D13*
X135030000Y-62720000D03*
D14*
X139210000Y-62720000D03*
D13*
X135030000Y-54080000D03*
D14*
X139210000Y-54080000D03*
D15*
X78750000Y-45600000D03*
G04 #@! TA.AperFunction,ComponentPad*
G36*
G01*
X71250000Y-46600000D02*
X71250000Y-44600000D01*
G75*
G02*
X72000000Y-43850000I750000J0D01*
G01*
X73500000Y-43850000D01*
G75*
G02*
X74250000Y-44600000I0J-750000D01*
G01*
X74250000Y-46600000D01*
G75*
G02*
X73500000Y-47350000I-750000J0D01*
G01*
X72000000Y-47350000D01*
G75*
G02*
X71250000Y-46600000I0J750000D01*
G01*
G37*
G04 #@! TD.AperFunction*
G04 #@! TA.AperFunction,ComponentPad*
G36*
G01*
X74000000Y-51175000D02*
X74000000Y-49425000D01*
G75*
G02*
X74875000Y-48550000I875000J0D01*
G01*
X76625000Y-48550000D01*
G75*
G02*
X77500000Y-49425000I0J-875000D01*
G01*
X77500000Y-51175000D01*
G75*
G02*
X76625000Y-52050000I-875000J0D01*
G01*
X74875000Y-52050000D01*
G75*
G02*
X74000000Y-51175000I0J875000D01*
G01*
G37*
G04 #@! TD.AperFunction*
G04 #@! TA.AperFunction,ComponentPad*
G36*
G01*
X72825000Y-73200000D02*
X71375000Y-73200000D01*
G75*
G02*
X71125000Y-72950000I0J250000D01*
G01*
X71125000Y-71750000D01*
G75*
G02*
X71375000Y-71500000I250000J0D01*
G01*
X72825000Y-71500000D01*
G75*
G02*
X73075000Y-71750000I0J-250000D01*
G01*
X73075000Y-72950000D01*
G75*
G02*
X72825000Y-73200000I-250000J0D01*
G01*
G37*
G04 #@! TD.AperFunction*
D16*
X72100000Y-69850000D03*
X72100000Y-67350000D03*
X72100000Y-64850000D03*
D17*
X73375000Y-57650000D03*
D18*
X70835000Y-57650000D03*
D17*
X137400000Y-49200000D03*
D18*
X134860000Y-49200000D03*
D19*
X128778000Y-64770000D03*
D20*
X128778000Y-46990000D03*
X88138000Y-46990000D03*
X88138000Y-64770000D03*
G04 #@! TA.AperFunction,ComponentPad*
G36*
G01*
X134385500Y-38286000D02*
X135885500Y-38286000D01*
G75*
G02*
X136135500Y-38536000I0J-250000D01*
G01*
X136135500Y-39736000D01*
G75*
G02*
X135885500Y-39986000I-250000J0D01*
G01*
X134385500Y-39986000D01*
G75*
G02*
X134135500Y-39736000I0J250000D01*
G01*
X134135500Y-38536000D01*
G75*
G02*
X134385500Y-38286000I250000J0D01*
G01*
G37*
G04 #@! TD.AperFunction*
D21*
X135135500Y-41636000D03*
G04 #@! TA.AperFunction,ComponentPad*
G36*
G01*
X134410500Y-68806000D02*
X135860500Y-68806000D01*
G75*
G02*
X136110500Y-69056000I0J-250000D01*
G01*
X136110500Y-70256000D01*
G75*
G02*
X135860500Y-70506000I-250000J0D01*
G01*
X134410500Y-70506000D01*
G75*
G02*
X134160500Y-70256000I0J250000D01*
G01*
X134160500Y-69056000D01*
G75*
G02*
X134410500Y-68806000I250000J0D01*
G01*
G37*
G04 #@! TD.AperFunction*
D16*
X135135500Y-72156000D03*
X135135500Y-74656000D03*
X135135500Y-77156000D03*
D22*
X73375000Y-57650000D02*
X74250000Y-57650000D01*
X86400000Y-49900000D02*
X121100000Y-49900000D01*
X79550000Y-46400000D02*
X78750000Y-45600000D01*
X79550000Y-52350000D02*
X79550000Y-46400000D01*
X121100000Y-49900000D02*
X129364000Y-41636000D01*
X82100000Y-45600000D02*
X86400000Y-49900000D01*
X78750000Y-45600000D02*
X82100000Y-45600000D01*
X129364000Y-41636000D02*
X135135500Y-41636000D01*
X74250000Y-57650000D02*
X79550000Y-52350000D01*
X132800000Y-53900000D02*
X133800000Y-52900000D01*
X134115000Y-61600000D02*
X133100000Y-61600000D01*
X133200000Y-55200000D02*
X132800000Y-54800000D01*
X132800000Y-54800000D02*
X132800000Y-53900000D01*
X134115000Y-55200000D02*
X133200000Y-55200000D01*
X133800000Y-52900000D02*
X134000000Y-52700000D01*
X133000000Y-61700000D02*
X133000000Y-63500000D01*
X133100000Y-61600000D02*
X133000000Y-61700000D01*
X133000000Y-63500000D02*
X133400000Y-63900000D01*
X134000000Y-52700000D02*
X136600000Y-52700000D01*
X72450000Y-72700000D02*
X127056000Y-72700000D01*
X127056000Y-72700000D02*
X131512000Y-77156000D01*
X72100000Y-72350000D02*
X72450000Y-72700000D01*
X131512000Y-77156000D02*
X135135500Y-77156000D01*
X127508000Y-71374000D02*
X130790000Y-74656000D01*
X85574000Y-71374000D02*
X127508000Y-71374000D01*
X72100000Y-69850000D02*
X84050000Y-69850000D01*
X84050000Y-69850000D02*
X85574000Y-71374000D01*
X130790000Y-74656000D02*
X135135500Y-74656000D01*
X86404000Y-70104000D02*
X128016000Y-70104000D01*
X83650000Y-67350000D02*
X86404000Y-70104000D01*
X130068000Y-72156000D02*
X135135500Y-72156000D01*
X72100000Y-67350000D02*
X83650000Y-67350000D01*
X128016000Y-70104000D02*
X130068000Y-72156000D01*
X135121500Y-72644000D02*
X135185500Y-72708000D01*
X134941500Y-69850000D02*
X135135500Y-69656000D01*
X82850000Y-64850000D02*
X86834000Y-68834000D01*
X129794000Y-69850000D02*
X134941500Y-69850000D01*
X86834000Y-68834000D02*
X128778000Y-68834000D01*
X72100000Y-64850000D02*
X82850000Y-64850000D01*
X128778000Y-68834000D02*
X129794000Y-69850000D01*
X128778000Y-64770000D02*
X128778000Y-50822000D01*
X137100000Y-42500000D02*
X137100000Y-39818000D01*
X128778000Y-50822000D02*
X137100000Y-42500000D01*
X137100000Y-39818000D02*
X136418000Y-39136000D01*
X136418000Y-39136000D02*
X135389500Y-39136000D01*
X131800000Y-55200000D02*
X131800000Y-53300000D01*
X123770000Y-64770000D02*
X126300000Y-67300000D01*
X133400000Y-51700000D02*
X135450000Y-51700000D01*
X132700000Y-60800000D02*
X132100000Y-60200000D01*
X130900000Y-67300000D02*
X132100000Y-66100000D01*
X88138000Y-64770000D02*
X123770000Y-64770000D01*
X137400000Y-49750000D02*
X137400000Y-49200000D01*
X126300000Y-67300000D02*
X130900000Y-67300000D01*
X132700000Y-60800000D02*
X132100000Y-61400000D01*
X131800000Y-53300000D02*
X133400000Y-51700000D01*
X132100000Y-60200000D02*
X132100000Y-56500000D01*
X134115000Y-56000000D02*
X132600000Y-56000000D01*
X135450000Y-51700000D02*
X137400000Y-49750000D01*
X137400000Y-49200000D02*
X137675000Y-49200000D01*
X132600000Y-56000000D02*
X132100000Y-56500000D01*
X132600000Y-56000000D02*
X131800000Y-55200000D01*
X132100000Y-66100000D02*
X132100000Y-61400000D01*
X134115000Y-60800000D02*
X132700000Y-60800000D01*
G04 #@! TA.AperFunction,Conductor*
G36*
X133255637Y-53432506D02*
G01*
X133311571Y-53474377D01*
X133335988Y-53539842D01*
X133326326Y-53597422D01*
X133285897Y-53692009D01*
X133285895Y-53692017D01*
X133235810Y-53911457D01*
X133235808Y-53911468D01*
X133230769Y-54023674D01*
X133225710Y-54136330D01*
X133255925Y-54359387D01*
X133255926Y-54359390D01*
X133325484Y-54573466D01*
X133327674Y-54578591D01*
X133325374Y-54579573D01*
X133337609Y-54637557D01*
X133312784Y-54702868D01*
X133282875Y-54731041D01*
X133245807Y-54755809D01*
X133201603Y-54821965D01*
X133198082Y-54839667D01*
X133165695Y-54901577D01*
X133104978Y-54936149D01*
X133035209Y-54932408D01*
X132988784Y-54903153D01*
X132886819Y-54801188D01*
X132853334Y-54739865D01*
X132850500Y-54713507D01*
X132850500Y-53786493D01*
X132870185Y-53719454D01*
X132886819Y-53698812D01*
X132999097Y-53586534D01*
X133124625Y-53461005D01*
X133185946Y-53427522D01*
X133255637Y-53432506D01*
G37*
G04 #@! TD.AperFunction*
G04 #@! TA.AperFunction,Conductor*
G36*
X140658539Y-35580185D02*
G01*
X140704294Y-35632989D01*
X140715500Y-35684500D01*
X140715500Y-53231631D01*
X140695815Y-53298670D01*
X140643011Y-53344425D01*
X140573853Y-53354369D01*
X140510297Y-53325344D01*
X140494553Y-53308944D01*
X140417510Y-53212336D01*
X140417508Y-53212334D01*
X140247996Y-53064235D01*
X140054764Y-52948785D01*
X139975671Y-52919100D01*
X139844023Y-52869692D01*
X139622550Y-52829500D01*
X139622547Y-52829500D01*
X138853845Y-52829500D01*
X138815399Y-52832960D01*
X138685813Y-52844622D01*
X138685807Y-52844623D01*
X138468839Y-52904503D01*
X138468826Y-52904508D01*
X138266033Y-53002167D01*
X138266025Y-53002171D01*
X138083927Y-53134473D01*
X138083925Y-53134474D01*
X137928366Y-53297176D01*
X137804363Y-53485033D01*
X137715899Y-53692004D01*
X137715895Y-53692017D01*
X137665810Y-53911457D01*
X137665808Y-53911468D01*
X137660769Y-54023674D01*
X137655710Y-54136330D01*
X137685925Y-54359387D01*
X137685926Y-54359390D01*
X137755483Y-54573465D01*
X137862146Y-54771678D01*
X137862148Y-54771681D01*
X138002489Y-54947663D01*
X138002491Y-54947664D01*
X138002492Y-54947666D01*
X138172004Y-55095765D01*
X138365236Y-55211215D01*
X138575976Y-55290307D01*
X138797450Y-55330500D01*
X138797453Y-55330500D01*
X139566148Y-55330500D01*
X139566155Y-55330500D01*
X139734188Y-55315377D01*
X139734192Y-55315376D01*
X139951160Y-55255496D01*
X139951162Y-55255495D01*
X139951170Y-55255493D01*
X140153973Y-55157829D01*
X140336078Y-55025522D01*
X140491632Y-54862825D01*
X140491635Y-54862819D01*
X140494546Y-54859170D01*
X140551731Y-54819024D01*
X140621542Y-54816168D01*
X140681815Y-54851509D01*
X140713414Y-54913825D01*
X140715500Y-54936474D01*
X140715500Y-61871631D01*
X140695815Y-61938670D01*
X140643011Y-61984425D01*
X140573853Y-61994369D01*
X140510297Y-61965344D01*
X140494553Y-61948944D01*
X140417510Y-61852336D01*
X140415409Y-61850500D01*
X140247996Y-61704235D01*
X140054764Y-61588785D01*
X139936775Y-61544503D01*
X139844023Y-61509692D01*
X139622550Y-61469500D01*
X139622547Y-61469500D01*
X138853845Y-61469500D01*
X138815399Y-61472960D01*
X138685813Y-61484622D01*
X138685807Y-61484623D01*
X138468839Y-61544503D01*
X138468826Y-61544508D01*
X138266033Y-61642167D01*
X138266025Y-61642171D01*
X138083927Y-61774473D01*
X138083925Y-61774474D01*
X137928366Y-61937176D01*
X137804363Y-62125033D01*
X137715899Y-62332004D01*
X137715895Y-62332017D01*
X137665810Y-62551457D01*
X137665808Y-62551468D01*
X137659473Y-62692539D01*
X137655710Y-62776330D01*
X137685925Y-62999387D01*
X137685926Y-62999390D01*
X137755483Y-63213465D01*
X137862146Y-63411678D01*
X137862148Y-63411681D01*
X138002489Y-63587663D01*
X138002491Y-63587664D01*
X138002492Y-63587666D01*
X138172004Y-63735765D01*
X138365236Y-63851215D01*
X138575976Y-63930307D01*
X138797450Y-63970500D01*
X138797453Y-63970500D01*
X139566148Y-63970500D01*
X139566155Y-63970500D01*
X139734188Y-63955377D01*
X139734192Y-63955376D01*
X139951160Y-63895496D01*
X139951162Y-63895495D01*
X139951170Y-63895493D01*
X140153973Y-63797829D01*
X140336078Y-63665522D01*
X140491632Y-63502825D01*
X140491635Y-63502819D01*
X140494546Y-63499170D01*
X140551731Y-63459024D01*
X140621542Y-63456168D01*
X140681815Y-63491509D01*
X140713414Y-63553825D01*
X140715500Y-63576474D01*
X140715500Y-81409500D01*
X140695815Y-81476539D01*
X140643011Y-81522294D01*
X140591500Y-81533500D01*
X66454500Y-81533500D01*
X66387461Y-81513815D01*
X66341706Y-81461011D01*
X66330500Y-81409500D01*
X66330500Y-77067763D01*
X88145787Y-77067763D01*
X88175413Y-77337013D01*
X88175415Y-77337024D01*
X88243926Y-77599082D01*
X88243928Y-77599088D01*
X88349870Y-77848390D01*
X88462954Y-78033685D01*
X88490979Y-78079605D01*
X88490986Y-78079615D01*
X88664253Y-78287819D01*
X88664259Y-78287824D01*
X88865998Y-78468582D01*
X89091910Y-78618044D01*
X89337176Y-78733020D01*
X89337183Y-78733022D01*
X89337185Y-78733023D01*
X89596557Y-78811057D01*
X89596564Y-78811058D01*
X89596569Y-78811060D01*
X89864561Y-78850500D01*
X89864566Y-78850500D01*
X90067636Y-78850500D01*
X90119133Y-78846730D01*
X90270156Y-78835677D01*
X90382758Y-78810593D01*
X90534546Y-78776782D01*
X90534548Y-78776781D01*
X90534553Y-78776780D01*
X90787558Y-78680014D01*
X91023777Y-78547441D01*
X91238177Y-78381888D01*
X91426186Y-78186881D01*
X91583799Y-77966579D01*
X91657787Y-77822669D01*
X91707649Y-77725690D01*
X91707651Y-77725684D01*
X91707656Y-77725675D01*
X91795118Y-77469305D01*
X91844319Y-77202933D01*
X91849259Y-77067763D01*
X123145787Y-77067763D01*
X123175413Y-77337013D01*
X123175415Y-77337024D01*
X123243926Y-77599082D01*
X123243928Y-77599088D01*
X123349870Y-77848390D01*
X123462954Y-78033685D01*
X123490979Y-78079605D01*
X123490986Y-78079615D01*
X123664253Y-78287819D01*
X123664259Y-78287824D01*
X123865998Y-78468582D01*
X124091910Y-78618044D01*
X124337176Y-78733020D01*
X124337183Y-78733022D01*
X124337185Y-78733023D01*
X124596557Y-78811057D01*
X124596564Y-78811058D01*
X124596569Y-78811060D01*
X124864561Y-78850500D01*
X124864566Y-78850500D01*
X125067636Y-78850500D01*
X125119133Y-78846730D01*
X125270156Y-78835677D01*
X125382758Y-78810593D01*
X125534546Y-78776782D01*
X125534548Y-78776781D01*
X125534553Y-78776780D01*
X125787558Y-78680014D01*
X126023777Y-78547441D01*
X126238177Y-78381888D01*
X126426186Y-78186881D01*
X126583799Y-77966579D01*
X126657787Y-77822669D01*
X126707649Y-77725690D01*
X126707651Y-77725684D01*
X126707656Y-77725675D01*
X126795118Y-77469305D01*
X126844319Y-77202933D01*
X126854212Y-76932235D01*
X126824586Y-76662982D01*
X126756072Y-76400912D01*
X126650130Y-76151610D01*
X126509018Y-75920390D01*
X126467265Y-75870218D01*
X126335746Y-75712180D01*
X126335740Y-75712175D01*
X126134002Y-75531418D01*
X125908092Y-75381957D01*
X125908090Y-75381956D01*
X125662824Y-75266980D01*
X125662819Y-75266978D01*
X125662814Y-75266976D01*
X125403442Y-75188942D01*
X125403428Y-75188939D01*
X125287791Y-75171921D01*
X125135439Y-75149500D01*
X124932369Y-75149500D01*
X124932364Y-75149500D01*
X124729844Y-75164323D01*
X124729831Y-75164325D01*
X124465453Y-75223217D01*
X124465446Y-75223220D01*
X124212439Y-75319987D01*
X123976226Y-75452557D01*
X123761822Y-75618112D01*
X123573822Y-75813109D01*
X123573816Y-75813116D01*
X123416202Y-76033419D01*
X123416199Y-76033424D01*
X123292350Y-76274309D01*
X123292343Y-76274327D01*
X123204884Y-76530685D01*
X123204881Y-76530699D01*
X123155681Y-76797068D01*
X123155680Y-76797075D01*
X123145787Y-77067763D01*
X91849259Y-77067763D01*
X91854212Y-76932235D01*
X91824586Y-76662982D01*
X91756072Y-76400912D01*
X91650130Y-76151610D01*
X91509018Y-75920390D01*
X91467265Y-75870218D01*
X91335746Y-75712180D01*
X91335740Y-75712175D01*
X91134002Y-75531418D01*
X90908092Y-75381957D01*
X90908090Y-75381956D01*
X90662824Y-75266980D01*
X90662819Y-75266978D01*
X90662814Y-75266976D01*
X90403442Y-75188942D01*
X90403428Y-75188939D01*
X90287791Y-75171921D01*
X90135439Y-75149500D01*
X89932369Y-75149500D01*
X89932364Y-75149500D01*
X89729844Y-75164323D01*
X89729831Y-75164325D01*
X89465453Y-75223217D01*
X89465446Y-75223220D01*
X89212439Y-75319987D01*
X88976226Y-75452557D01*
X88761822Y-75618112D01*
X88573822Y-75813109D01*
X88573816Y-75813116D01*
X88416202Y-76033419D01*
X88416199Y-76033424D01*
X88292350Y-76274309D01*
X88292343Y-76274327D01*
X88204884Y-76530685D01*
X88204881Y-76530699D01*
X88155681Y-76797068D01*
X88155680Y-76797075D01*
X88145787Y-77067763D01*
X66330500Y-77067763D01*
X66330500Y-67524130D01*
X66333342Y-66218834D01*
X66350908Y-58150000D01*
X69911671Y-58150000D01*
X69957727Y-58236166D01*
X69957732Y-58236173D01*
X70088944Y-58396055D01*
X70248826Y-58527266D01*
X70335000Y-58573326D01*
X70335000Y-58150000D01*
X69911671Y-58150000D01*
X66350908Y-58150000D01*
X66351840Y-57721889D01*
X70335000Y-57721889D01*
X70375507Y-57859844D01*
X70453239Y-57980798D01*
X70561900Y-58074952D01*
X70692685Y-58134680D01*
X70799237Y-58150000D01*
X70870763Y-58150000D01*
X70977315Y-58134680D01*
X71108100Y-58074952D01*
X71216761Y-57980798D01*
X71294493Y-57859844D01*
X71335000Y-57721889D01*
X71335000Y-58573326D01*
X71421173Y-58527266D01*
X71571835Y-58403621D01*
X71636144Y-58376308D01*
X71705012Y-58388099D01*
X71756572Y-58435251D01*
X71774500Y-58499472D01*
X71774500Y-58550000D01*
X71774501Y-58550019D01*
X71785000Y-58652796D01*
X71785001Y-58652799D01*
X71840185Y-58819331D01*
X71840186Y-58819334D01*
X71932288Y-58968656D01*
X72056344Y-59092712D01*
X72205666Y-59184814D01*
X72372203Y-59239999D01*
X72474991Y-59250500D01*
X74275008Y-59250499D01*
X74377797Y-59239999D01*
X74544334Y-59184814D01*
X74693656Y-59092712D01*
X74817712Y-58968656D01*
X74909814Y-58819334D01*
X74964999Y-58652797D01*
X74975500Y-58550009D01*
X74975499Y-58466255D01*
X74995183Y-58399218D01*
X75003633Y-58387607D01*
X75027385Y-58358664D01*
X75031447Y-58354182D01*
X80254171Y-53131458D01*
X80258674Y-53127378D01*
X80296409Y-53096411D01*
X80298333Y-53094067D01*
X80427685Y-52936450D01*
X80525232Y-52753954D01*
X80585300Y-52555934D01*
X80600500Y-52401608D01*
X80600500Y-52401607D01*
X80605583Y-52350000D01*
X80600799Y-52301424D01*
X80600500Y-52295343D01*
X80600500Y-48196869D01*
X80620185Y-48129830D01*
X80672989Y-48084075D01*
X80685486Y-48079166D01*
X80819334Y-48034814D01*
X80968656Y-47942712D01*
X81092712Y-47818656D01*
X81184814Y-47669334D01*
X81239999Y-47502797D01*
X81250500Y-47400009D01*
X81250500Y-46774500D01*
X81270185Y-46707461D01*
X81322989Y-46661706D01*
X81374500Y-46650500D01*
X81613507Y-46650500D01*
X81680546Y-46670185D01*
X81701187Y-46686818D01*
X85618546Y-50604178D01*
X85622626Y-50608680D01*
X85653587Y-50646407D01*
X85653588Y-50646408D01*
X85653590Y-50646410D01*
X85675877Y-50664700D01*
X85693671Y-50679303D01*
X85693682Y-50679313D01*
X85749070Y-50724769D01*
X85813549Y-50777685D01*
X85970845Y-50861762D01*
X85987330Y-50870574D01*
X85996045Y-50875232D01*
X86194066Y-50935300D01*
X86400000Y-50955583D01*
X86435436Y-50952092D01*
X86448576Y-50950799D01*
X86454657Y-50950500D01*
X121045343Y-50950500D01*
X121051424Y-50950799D01*
X121065580Y-50952192D01*
X121100000Y-50955583D01*
X121305934Y-50935300D01*
X121503955Y-50875232D01*
X121686450Y-50777685D01*
X121738689Y-50734814D01*
X121846410Y-50646410D01*
X121846413Y-50646407D01*
X121877378Y-50608674D01*
X121881462Y-50604168D01*
X125495625Y-46990005D01*
X127302962Y-46990005D01*
X127323079Y-47232779D01*
X127382883Y-47468942D01*
X127446627Y-47614265D01*
X128070893Y-46990000D01*
X127446627Y-46365734D01*
X127382883Y-46511057D01*
X127323079Y-46747220D01*
X127302962Y-46989994D01*
X127302962Y-46990005D01*
X125495625Y-46990005D01*
X126828460Y-45657170D01*
X128152276Y-45657170D01*
X128778000Y-46282893D01*
X128778001Y-46282893D01*
X129403722Y-45657170D01*
X129403722Y-45657169D01*
X129370522Y-45639203D01*
X129370511Y-45639198D01*
X129140102Y-45560098D01*
X128899807Y-45520000D01*
X128656193Y-45520000D01*
X128415897Y-45560098D01*
X128185492Y-45639197D01*
X128185476Y-45639203D01*
X128152276Y-45657170D01*
X126828460Y-45657170D01*
X129762812Y-42722819D01*
X129824135Y-42689334D01*
X129850493Y-42686500D01*
X133720751Y-42686500D01*
X133787790Y-42706185D01*
X133815037Y-42729965D01*
X133850276Y-42771224D01*
X134041843Y-42934838D01*
X134041846Y-42934839D01*
X134256640Y-43066466D01*
X134361744Y-43110001D01*
X134489389Y-43162873D01*
X134646731Y-43200647D01*
X134707323Y-43235437D01*
X134739487Y-43297464D01*
X134733011Y-43367033D01*
X134705465Y-43408902D01*
X130266598Y-47847769D01*
X130205275Y-47881254D01*
X130135583Y-47876270D01*
X130079650Y-47834398D01*
X130055233Y-47768934D01*
X130070085Y-47700661D01*
X130075118Y-47692251D01*
X130075260Y-47692033D01*
X130173115Y-47468944D01*
X130232920Y-47232779D01*
X130253038Y-46990005D01*
X130253038Y-46989994D01*
X130232920Y-46747220D01*
X130173116Y-46511057D01*
X130109372Y-46365734D01*
X130109371Y-46365733D01*
X129169567Y-47305538D01*
X129237493Y-47199844D01*
X129278000Y-47061889D01*
X129278000Y-46918111D01*
X129237493Y-46780156D01*
X129159761Y-46659202D01*
X129051100Y-46565048D01*
X128920315Y-46505320D01*
X128813763Y-46490000D01*
X128742237Y-46490000D01*
X128635685Y-46505320D01*
X128504900Y-46565048D01*
X128396239Y-46659202D01*
X128318507Y-46780156D01*
X128278000Y-46918111D01*
X128278000Y-47061889D01*
X128318507Y-47199844D01*
X128396239Y-47320798D01*
X128504900Y-47414952D01*
X128635685Y-47474680D01*
X128742237Y-47490000D01*
X128813763Y-47490000D01*
X128920315Y-47474680D01*
X129051100Y-47414952D01*
X129118918Y-47356187D01*
X128778000Y-47697107D01*
X128152277Y-48322828D01*
X128185488Y-48340801D01*
X128185490Y-48340802D01*
X128415897Y-48419901D01*
X128656193Y-48460000D01*
X128899807Y-48460000D01*
X129140102Y-48419901D01*
X129370508Y-48340802D01*
X129370526Y-48340795D01*
X129500450Y-48270483D01*
X129568778Y-48255887D01*
X129634150Y-48280549D01*
X129675812Y-48336640D01*
X129680534Y-48406350D01*
X129647149Y-48467218D01*
X128073839Y-50040529D01*
X128069329Y-50044616D01*
X128031592Y-50075587D01*
X127927196Y-50202796D01*
X127900316Y-50235549D01*
X127900314Y-50235552D01*
X127802769Y-50418041D01*
X127742699Y-50616068D01*
X127722417Y-50822000D01*
X127727201Y-50870574D01*
X127727500Y-50876655D01*
X127727500Y-62625500D01*
X127707815Y-62692539D01*
X127655011Y-62738294D01*
X127603501Y-62749500D01*
X127457999Y-62749500D01*
X127457980Y-62749501D01*
X127355203Y-62760000D01*
X127355200Y-62760001D01*
X127188668Y-62815185D01*
X127188663Y-62815187D01*
X127039342Y-62907289D01*
X126915289Y-63031342D01*
X126823187Y-63180663D01*
X126823186Y-63180666D01*
X126768001Y-63347203D01*
X126768001Y-63347204D01*
X126768000Y-63347204D01*
X126757500Y-63449983D01*
X126757500Y-65972507D01*
X126737815Y-66039546D01*
X126685011Y-66085301D01*
X126615853Y-66095245D01*
X126552297Y-66066220D01*
X126545832Y-66060200D01*
X124551456Y-64065825D01*
X124547378Y-64061325D01*
X124516408Y-64023588D01*
X124356450Y-63892315D01*
X124356447Y-63892313D01*
X124323623Y-63874768D01*
X124173957Y-63794769D01*
X124173956Y-63794768D01*
X124173955Y-63794768D01*
X123975934Y-63734700D01*
X123975931Y-63734699D01*
X123975933Y-63734699D01*
X123790282Y-63716414D01*
X123770000Y-63714417D01*
X123769999Y-63714417D01*
X123721424Y-63719201D01*
X123715343Y-63719500D01*
X89933891Y-63719500D01*
X89866852Y-63699815D01*
X89832587Y-63667008D01*
X89708989Y-63491909D01*
X89675609Y-63456168D01*
X89520321Y-63289896D01*
X89305905Y-63115455D01*
X89305903Y-63115454D01*
X89305901Y-63115452D01*
X89069731Y-62971834D01*
X88816209Y-62861714D01*
X88550048Y-62787139D01*
X88550044Y-62787138D01*
X88550043Y-62787138D01*
X88352607Y-62760001D01*
X88276207Y-62749500D01*
X88276206Y-62749500D01*
X87999794Y-62749500D01*
X87999793Y-62749500D01*
X87725957Y-62787138D01*
X87725951Y-62787139D01*
X87459790Y-62861714D01*
X87206268Y-62971834D01*
X86970098Y-63115452D01*
X86755682Y-63289893D01*
X86567014Y-63491904D01*
X86407611Y-63717728D01*
X86280443Y-63963151D01*
X86187881Y-64223596D01*
X86187876Y-64223613D01*
X86131642Y-64494229D01*
X86131641Y-64494231D01*
X86112779Y-64770000D01*
X86131641Y-65045768D01*
X86131642Y-65045770D01*
X86187876Y-65316386D01*
X86187881Y-65316403D01*
X86280443Y-65576848D01*
X86407611Y-65822271D01*
X86567014Y-66048095D01*
X86606159Y-66090008D01*
X86755679Y-66250104D01*
X86970095Y-66424545D01*
X86970097Y-66424546D01*
X86970098Y-66424547D01*
X87206268Y-66568165D01*
X87459790Y-66678285D01*
X87459795Y-66678287D01*
X87725957Y-66752862D01*
X87966703Y-66785951D01*
X87999793Y-66790500D01*
X87999794Y-66790500D01*
X88276207Y-66790500D01*
X88305729Y-66786442D01*
X88550043Y-66752862D01*
X88816205Y-66678287D01*
X89069733Y-66568164D01*
X89305905Y-66424545D01*
X89520321Y-66250104D01*
X89708987Y-66048093D01*
X89762341Y-65972507D01*
X89832587Y-65872992D01*
X89887328Y-65829574D01*
X89933891Y-65820500D01*
X123283507Y-65820500D01*
X123350546Y-65840185D01*
X123371188Y-65856819D01*
X125086187Y-67571819D01*
X125119672Y-67633142D01*
X125114688Y-67702834D01*
X125072816Y-67758767D01*
X125007352Y-67783184D01*
X124998506Y-67783500D01*
X87320493Y-67783500D01*
X87253454Y-67763815D01*
X87232812Y-67747181D01*
X85458138Y-65972507D01*
X83631456Y-64145825D01*
X83627378Y-64141325D01*
X83624596Y-64137935D01*
X83596410Y-64103590D01*
X83596408Y-64103588D01*
X83436452Y-63972316D01*
X83404761Y-63955376D01*
X83253958Y-63874769D01*
X83253955Y-63874768D01*
X83055934Y-63814700D01*
X83055931Y-63814699D01*
X83055933Y-63814699D01*
X82870282Y-63796414D01*
X82850000Y-63794417D01*
X82849999Y-63794417D01*
X82801424Y-63799201D01*
X82795343Y-63799500D01*
X73489749Y-63799500D01*
X73422710Y-63779815D01*
X73395462Y-63756034D01*
X73360224Y-63714776D01*
X73302560Y-63665526D01*
X73168656Y-63551161D01*
X73168653Y-63551160D01*
X72953859Y-63419533D01*
X72721110Y-63323126D01*
X72476150Y-63264317D01*
X72287884Y-63249500D01*
X72287882Y-63249500D01*
X71912118Y-63249500D01*
X71912116Y-63249500D01*
X71723849Y-63264317D01*
X71478889Y-63323126D01*
X71246140Y-63419533D01*
X71031346Y-63551160D01*
X71031343Y-63551161D01*
X70839776Y-63714776D01*
X70676161Y-63906343D01*
X70676160Y-63906346D01*
X70544533Y-64121140D01*
X70448126Y-64353889D01*
X70389317Y-64598848D01*
X70369551Y-64850000D01*
X70389317Y-65101151D01*
X70448126Y-65346110D01*
X70544533Y-65578859D01*
X70676160Y-65793653D01*
X70676161Y-65793656D01*
X70839776Y-65985224D01*
X70863763Y-66005711D01*
X70901955Y-66064218D01*
X70902453Y-66134086D01*
X70865099Y-66193132D01*
X70863763Y-66194289D01*
X70839776Y-66214775D01*
X70676161Y-66406343D01*
X70676160Y-66406346D01*
X70544533Y-66621140D01*
X70448126Y-66853889D01*
X70389317Y-67098848D01*
X70369551Y-67350000D01*
X70389317Y-67601151D01*
X70448126Y-67846110D01*
X70544533Y-68078859D01*
X70676160Y-68293653D01*
X70676161Y-68293656D01*
X70839776Y-68485224D01*
X70863763Y-68505711D01*
X70901955Y-68564218D01*
X70902453Y-68634086D01*
X70865099Y-68693132D01*
X70863763Y-68694289D01*
X70839776Y-68714775D01*
X70676161Y-68906343D01*
X70676160Y-68906346D01*
X70544533Y-69121140D01*
X70448126Y-69353889D01*
X70389317Y-69598848D01*
X70369551Y-69850000D01*
X70389317Y-70101151D01*
X70448126Y-70346110D01*
X70544533Y-70578859D01*
X70676160Y-70793653D01*
X70676161Y-70793655D01*
X70712202Y-70835854D01*
X70740772Y-70899615D01*
X70730334Y-70968701D01*
X70696273Y-71012486D01*
X70663891Y-71038890D01*
X70535304Y-71196590D01*
X70535302Y-71196593D01*
X70488196Y-71286772D01*
X70441089Y-71376954D01*
X70423674Y-71437819D01*
X70386187Y-71568834D01*
X70385114Y-71572583D01*
X70385113Y-71572586D01*
X70374500Y-71691965D01*
X70374500Y-71691966D01*
X70374501Y-73008032D01*
X70374501Y-73008033D01*
X70385113Y-73127415D01*
X70441089Y-73323045D01*
X70441090Y-73323048D01*
X70441091Y-73323049D01*
X70535302Y-73503407D01*
X70535304Y-73503409D01*
X70663890Y-73661109D01*
X70726728Y-73712346D01*
X70821593Y-73789698D01*
X71001951Y-73883909D01*
X71197582Y-73939886D01*
X71316963Y-73950500D01*
X71316964Y-73950499D01*
X71316965Y-73950500D01*
X71316966Y-73950500D01*
X71988137Y-73950499D01*
X72883036Y-73950499D01*
X73002418Y-73939886D01*
X73198049Y-73883909D01*
X73378407Y-73789698D01*
X73392266Y-73778397D01*
X73456661Y-73751289D01*
X73470626Y-73750500D01*
X126569507Y-73750500D01*
X126636546Y-73770185D01*
X126657188Y-73786819D01*
X130730541Y-77860172D01*
X130734621Y-77864674D01*
X130765589Y-77902410D01*
X130843782Y-77966580D01*
X130925550Y-78033685D01*
X131108046Y-78131232D01*
X131306066Y-78191300D01*
X131306065Y-78191300D01*
X131324529Y-78193118D01*
X131512000Y-78211583D01*
X131547436Y-78208092D01*
X131560576Y-78206799D01*
X131566657Y-78206500D01*
X133745751Y-78206500D01*
X133812790Y-78226185D01*
X133840037Y-78249965D01*
X133872368Y-78287819D01*
X133875276Y-78291224D01*
X134066843Y-78454838D01*
X134066846Y-78454839D01*
X134281640Y-78586466D01*
X134357877Y-78618044D01*
X134514389Y-78682873D01*
X134759352Y-78741683D01*
X134915450Y-78753968D01*
X134947616Y-78756500D01*
X134947618Y-78756500D01*
X135323384Y-78756500D01*
X135353018Y-78754167D01*
X135511648Y-78741683D01*
X135756611Y-78682873D01*
X135989359Y-78586466D01*
X136204159Y-78454836D01*
X136395724Y-78291224D01*
X136559336Y-78099659D01*
X136690966Y-77884859D01*
X136787373Y-77652111D01*
X136846183Y-77407148D01*
X136865949Y-77156000D01*
X136846183Y-76904852D01*
X136787373Y-76659889D01*
X136733861Y-76530699D01*
X136690966Y-76427140D01*
X136559339Y-76212346D01*
X136559338Y-76212343D01*
X136395724Y-76020776D01*
X136395722Y-76020774D01*
X136371736Y-76000288D01*
X136333545Y-75941784D01*
X136333045Y-75871916D01*
X136370399Y-75812870D01*
X136371669Y-75811768D01*
X136395724Y-75791224D01*
X136559336Y-75599659D01*
X136690966Y-75384859D01*
X136787373Y-75152111D01*
X136846183Y-74907148D01*
X136865949Y-74656000D01*
X136846183Y-74404852D01*
X136787373Y-74159889D01*
X136700642Y-73950500D01*
X136690966Y-73927140D01*
X136559339Y-73712346D01*
X136559338Y-73712343D01*
X136395724Y-73520776D01*
X136395722Y-73520774D01*
X136371736Y-73500288D01*
X136333545Y-73441784D01*
X136333045Y-73371916D01*
X136370399Y-73312870D01*
X136371669Y-73311768D01*
X136395724Y-73291224D01*
X136559336Y-73099659D01*
X136690966Y-72884859D01*
X136787373Y-72652111D01*
X136846183Y-72407148D01*
X136865949Y-72156000D01*
X136846183Y-71904852D01*
X136787373Y-71659889D01*
X136751210Y-71572583D01*
X136690966Y-71427140D01*
X136559339Y-71212346D01*
X136559338Y-71212344D01*
X136559337Y-71212343D01*
X136559336Y-71212341D01*
X136523295Y-71170143D01*
X136494726Y-71106385D01*
X136505163Y-71037299D01*
X136539224Y-70993514D01*
X136571609Y-70967109D01*
X136700198Y-70809407D01*
X136794409Y-70629049D01*
X136850386Y-70433418D01*
X136861000Y-70314037D01*
X136860999Y-68997964D01*
X136850386Y-68878582D01*
X136797322Y-68693132D01*
X136794410Y-68682954D01*
X136794409Y-68682953D01*
X136794409Y-68682951D01*
X136700198Y-68502593D01*
X136596350Y-68375233D01*
X136571609Y-68344890D01*
X136413909Y-68216304D01*
X136413910Y-68216304D01*
X136413907Y-68216302D01*
X136233549Y-68122091D01*
X136233548Y-68122090D01*
X136233545Y-68122089D01*
X136116329Y-68088550D01*
X136037918Y-68066114D01*
X136037915Y-68066113D01*
X136037913Y-68066113D01*
X135947483Y-68058073D01*
X135918537Y-68055500D01*
X135918535Y-68055500D01*
X135918534Y-68055500D01*
X135247362Y-68055500D01*
X134352464Y-68055501D01*
X134323227Y-68058100D01*
X134233084Y-68066113D01*
X134037454Y-68122089D01*
X133947272Y-68169196D01*
X133857093Y-68216302D01*
X133857091Y-68216303D01*
X133857090Y-68216304D01*
X133699390Y-68344890D01*
X133570804Y-68502590D01*
X133570802Y-68502593D01*
X133568568Y-68506870D01*
X133476588Y-68682956D01*
X133468961Y-68709613D01*
X133431593Y-68768650D01*
X133368239Y-68798113D01*
X133349746Y-68799500D01*
X130280493Y-68799500D01*
X130213454Y-68779815D01*
X130192812Y-68763181D01*
X129991812Y-68562181D01*
X129958327Y-68500858D01*
X129963311Y-68431166D01*
X130005183Y-68375233D01*
X130070647Y-68350816D01*
X130079493Y-68350500D01*
X130845343Y-68350500D01*
X130851424Y-68350799D01*
X130865580Y-68352192D01*
X130900000Y-68355583D01*
X131105934Y-68335300D01*
X131303955Y-68275232D01*
X131486450Y-68177685D01*
X131585484Y-68096410D01*
X131646410Y-68046410D01*
X131677378Y-68008673D01*
X131681458Y-68004171D01*
X132804176Y-66881454D01*
X132808668Y-66877382D01*
X132846410Y-66846410D01*
X132911640Y-66766927D01*
X132977685Y-66686451D01*
X133075232Y-66503955D01*
X133135300Y-66305934D01*
X133155583Y-66100000D01*
X133150799Y-66051424D01*
X133150500Y-66045343D01*
X133150500Y-63380398D01*
X133170185Y-63313359D01*
X133222989Y-63267604D01*
X133292147Y-63257660D01*
X133355703Y-63286685D01*
X133383694Y-63321638D01*
X133432146Y-63411678D01*
X133432148Y-63411681D01*
X133572489Y-63587663D01*
X133572491Y-63587664D01*
X133572492Y-63587666D01*
X133742004Y-63735765D01*
X133935236Y-63851215D01*
X134145976Y-63930307D01*
X134367450Y-63970500D01*
X134367453Y-63970500D01*
X135636148Y-63970500D01*
X135636155Y-63970500D01*
X135804188Y-63955377D01*
X135804192Y-63955376D01*
X136021160Y-63895496D01*
X136021162Y-63895495D01*
X136021170Y-63895493D01*
X136223973Y-63797829D01*
X136406078Y-63665522D01*
X136561632Y-63502825D01*
X136685635Y-63314968D01*
X136705880Y-63267604D01*
X136774100Y-63107995D01*
X136774099Y-63107995D01*
X136774103Y-63107988D01*
X136824191Y-62888537D01*
X136834290Y-62663670D01*
X136804075Y-62440613D01*
X136734517Y-62226536D01*
X136627852Y-62028319D01*
X136487508Y-61852334D01*
X136398391Y-61774474D01*
X136317999Y-61704237D01*
X136317996Y-61704235D01*
X136164122Y-61612300D01*
X136116670Y-61561018D01*
X136104475Y-61492221D01*
X136113162Y-61458402D01*
X136120687Y-61440236D01*
X136140466Y-61290000D01*
X136120687Y-61139764D01*
X136062698Y-60999767D01*
X135970451Y-60879549D01*
X135850233Y-60787302D01*
X135850229Y-60787300D01*
X135710236Y-60729313D01*
X135710228Y-60729312D01*
X135698309Y-60727742D01*
X135634414Y-60699474D01*
X135595945Y-60641149D01*
X135590499Y-60604804D01*
X135590499Y-60449997D01*
X135590499Y-60449992D01*
X135586679Y-60412599D01*
X135586679Y-60387405D01*
X135590500Y-60350009D01*
X135590499Y-59949992D01*
X135586679Y-59912599D01*
X135586679Y-59887405D01*
X135590500Y-59850009D01*
X135590499Y-59449992D01*
X135586679Y-59412599D01*
X135586679Y-59387405D01*
X135590500Y-59350009D01*
X135590499Y-58949992D01*
X135586679Y-58912599D01*
X135586679Y-58887405D01*
X135590500Y-58850009D01*
X135590499Y-58449992D01*
X135586679Y-58412599D01*
X135586679Y-58387405D01*
X135590500Y-58350009D01*
X135590499Y-57949992D01*
X135586679Y-57912599D01*
X135586679Y-57887405D01*
X135590500Y-57850009D01*
X135590499Y-57449992D01*
X135586679Y-57412599D01*
X135586679Y-57387405D01*
X135590500Y-57350009D01*
X135590499Y-56949992D01*
X135586679Y-56912599D01*
X135586679Y-56887405D01*
X135590500Y-56850009D01*
X135590499Y-56449992D01*
X135586679Y-56412599D01*
X135586679Y-56387405D01*
X135590500Y-56350009D01*
X135590500Y-56195195D01*
X135610185Y-56128156D01*
X135662989Y-56082401D01*
X135698314Y-56072256D01*
X135710236Y-56070687D01*
X135850233Y-56012698D01*
X135970451Y-55920451D01*
X136062698Y-55800233D01*
X136120687Y-55660236D01*
X136140466Y-55510000D01*
X136120687Y-55359764D01*
X136112991Y-55341185D01*
X136105522Y-55271721D01*
X136136795Y-55209241D01*
X136173749Y-55182014D01*
X136223973Y-55157829D01*
X136309400Y-55095763D01*
X136406072Y-55025527D01*
X136406074Y-55025525D01*
X136406074Y-55025524D01*
X136406078Y-55025522D01*
X136561632Y-54862825D01*
X136685635Y-54674968D01*
X136774103Y-54467988D01*
X136824191Y-54248537D01*
X136834290Y-54023670D01*
X136804075Y-53800613D01*
X136734517Y-53586536D01*
X136627852Y-53388319D01*
X136487508Y-53212334D01*
X136317996Y-53064235D01*
X136124764Y-52948785D01*
X135921538Y-52872513D01*
X135865690Y-52830528D01*
X135841407Y-52765013D01*
X135856398Y-52696771D01*
X135905905Y-52647467D01*
X135906497Y-52647146D01*
X136036450Y-52577685D01*
X136156323Y-52479308D01*
X136196410Y-52446410D01*
X136227378Y-52408673D01*
X136231458Y-52404171D01*
X137798813Y-50836818D01*
X137860136Y-50803333D01*
X137886494Y-50800499D01*
X138300002Y-50800499D01*
X138300008Y-50800499D01*
X138402797Y-50789999D01*
X138569334Y-50734814D01*
X138718656Y-50642712D01*
X138842712Y-50518656D01*
X138934814Y-50369334D01*
X138989999Y-50202797D01*
X139000500Y-50100009D01*
X139000499Y-48299992D01*
X138994500Y-48241270D01*
X138989999Y-48197203D01*
X138989998Y-48197200D01*
X138981975Y-48172988D01*
X138934814Y-48030666D01*
X138842712Y-47881344D01*
X138718656Y-47757288D01*
X138625888Y-47700069D01*
X138569336Y-47665187D01*
X138569331Y-47665185D01*
X138567862Y-47664698D01*
X138402797Y-47610001D01*
X138402795Y-47610000D01*
X138300010Y-47599500D01*
X136499998Y-47599500D01*
X136499981Y-47599501D01*
X136397203Y-47610000D01*
X136397200Y-47610001D01*
X136230668Y-47665185D01*
X136230663Y-47665187D01*
X136081342Y-47757289D01*
X135957289Y-47881342D01*
X135865187Y-48030663D01*
X135865186Y-48030666D01*
X135810001Y-48197203D01*
X135810001Y-48197204D01*
X135810000Y-48197204D01*
X135799500Y-48299983D01*
X135799500Y-48350524D01*
X135779815Y-48417563D01*
X135727011Y-48463318D01*
X135657853Y-48473262D01*
X135596835Y-48446377D01*
X135446173Y-48322733D01*
X135446166Y-48322727D01*
X135360000Y-48276671D01*
X135360000Y-49128111D01*
X135319493Y-48990156D01*
X135241761Y-48869202D01*
X135133100Y-48775048D01*
X135002315Y-48715320D01*
X134895763Y-48700000D01*
X134824237Y-48700000D01*
X134717685Y-48715320D01*
X134586900Y-48775048D01*
X134478239Y-48869202D01*
X134400507Y-48990156D01*
X134360000Y-49128111D01*
X134360000Y-49271889D01*
X134400507Y-49409844D01*
X134478239Y-49530798D01*
X134586900Y-49624952D01*
X134717685Y-49684680D01*
X134824237Y-49700000D01*
X134895763Y-49700000D01*
X135002315Y-49684680D01*
X135133100Y-49624952D01*
X135241761Y-49530798D01*
X135319493Y-49409844D01*
X135360000Y-49271889D01*
X135360000Y-50134511D01*
X135384291Y-50160836D01*
X135396389Y-50229650D01*
X135369363Y-50294082D01*
X135360842Y-50303526D01*
X135051186Y-50613182D01*
X134989865Y-50646666D01*
X134963507Y-50649500D01*
X133454657Y-50649500D01*
X133448576Y-50649201D01*
X133400000Y-50644417D01*
X133348392Y-50649500D01*
X133194067Y-50664699D01*
X132996043Y-50724769D01*
X132897052Y-50777682D01*
X132813550Y-50822315D01*
X132813548Y-50822316D01*
X132813547Y-50822317D01*
X132653590Y-50953588D01*
X132622621Y-50991325D01*
X132618533Y-50995835D01*
X131095839Y-52518529D01*
X131091329Y-52522616D01*
X131053592Y-52553587D01*
X130953762Y-52675232D01*
X130922315Y-52713549D01*
X130824769Y-52896042D01*
X130824767Y-52896046D01*
X130808770Y-52948785D01*
X130764699Y-53094067D01*
X130751540Y-53227685D01*
X130744417Y-53300000D01*
X130749201Y-53348574D01*
X130749500Y-53354655D01*
X130749500Y-55145343D01*
X130749201Y-55151424D01*
X130744417Y-55199999D01*
X130744417Y-55200000D01*
X130749500Y-55251607D01*
X130749500Y-55251608D01*
X130749883Y-55255493D01*
X130755781Y-55315377D01*
X130764699Y-55405931D01*
X130764700Y-55405934D01*
X130824768Y-55603955D01*
X130902565Y-55749500D01*
X130922315Y-55786450D01*
X131013665Y-55897761D01*
X131053588Y-55946408D01*
X131082877Y-55970445D01*
X131122211Y-56028191D01*
X131124082Y-56098035D01*
X131122877Y-56102278D01*
X131098777Y-56181725D01*
X131064699Y-56294068D01*
X131044417Y-56500000D01*
X131049201Y-56548574D01*
X131049500Y-56554655D01*
X131049500Y-60145343D01*
X131049201Y-60151424D01*
X131044417Y-60199999D01*
X131064699Y-60405931D01*
X131124769Y-60603958D01*
X131191773Y-60729312D01*
X131198312Y-60741545D01*
X131212555Y-60809947D01*
X131198313Y-60858454D01*
X131124769Y-60996041D01*
X131064699Y-61194068D01*
X131044417Y-61400000D01*
X131049201Y-61448574D01*
X131049500Y-61454655D01*
X131049500Y-65613505D01*
X131029815Y-65680544D01*
X131013181Y-65701186D01*
X131010180Y-65704187D01*
X130948857Y-65737672D01*
X130879165Y-65732688D01*
X130823232Y-65690816D01*
X130798815Y-65625352D01*
X130798499Y-65616506D01*
X130798499Y-63449998D01*
X130798498Y-63449981D01*
X130787999Y-63347203D01*
X130787998Y-63347200D01*
X130780021Y-63323126D01*
X130732814Y-63180666D01*
X130640712Y-63031344D01*
X130516656Y-62907288D01*
X130367334Y-62815186D01*
X130200797Y-62760001D01*
X130200795Y-62760000D01*
X130098016Y-62749500D01*
X130098009Y-62749500D01*
X129952500Y-62749500D01*
X129885461Y-62729815D01*
X129839706Y-62677011D01*
X129828500Y-62625500D01*
X129828500Y-51308492D01*
X129848185Y-51241453D01*
X129864814Y-51220816D01*
X131385630Y-49700000D01*
X133936671Y-49700000D01*
X133982727Y-49786166D01*
X133982732Y-49786173D01*
X134113944Y-49946055D01*
X134273826Y-50077266D01*
X134360000Y-50123326D01*
X134360000Y-49700000D01*
X133936671Y-49700000D01*
X131385630Y-49700000D01*
X132385631Y-48699999D01*
X133936671Y-48699999D01*
X133936672Y-48700000D01*
X134360000Y-48700000D01*
X134360000Y-48276671D01*
X134359999Y-48276671D01*
X134273833Y-48322727D01*
X134273826Y-48322732D01*
X134113944Y-48453944D01*
X133982732Y-48613826D01*
X133982727Y-48613833D01*
X133936671Y-48699999D01*
X132385631Y-48699999D01*
X137804171Y-43281458D01*
X137808674Y-43277378D01*
X137833153Y-43257289D01*
X137846410Y-43246410D01*
X137914967Y-43162873D01*
X137977685Y-43086451D01*
X138075232Y-42903955D01*
X138135300Y-42705934D01*
X138155583Y-42500000D01*
X138150799Y-42451424D01*
X138150500Y-42445343D01*
X138150500Y-39872655D01*
X138150799Y-39866574D01*
X138151805Y-39856352D01*
X138155583Y-39818000D01*
X138135300Y-39612066D01*
X138075232Y-39414046D01*
X137977685Y-39231550D01*
X137912080Y-39151610D01*
X137846410Y-39071590D01*
X137808674Y-39040621D01*
X137804172Y-39036541D01*
X137199456Y-38431825D01*
X137195378Y-38427325D01*
X137164408Y-38389588D01*
X137015008Y-38266980D01*
X137004450Y-38258315D01*
X136850581Y-38176069D01*
X136800737Y-38127106D01*
X136799126Y-38124122D01*
X136725197Y-37982592D01*
X136725195Y-37982590D01*
X136701458Y-37953479D01*
X136596609Y-37824890D01*
X136438909Y-37696304D01*
X136438910Y-37696304D01*
X136438907Y-37696302D01*
X136258549Y-37602091D01*
X136258548Y-37602090D01*
X136258545Y-37602089D01*
X136141329Y-37568550D01*
X136062918Y-37546114D01*
X136062915Y-37546113D01*
X136062913Y-37546113D01*
X135972483Y-37538073D01*
X135943537Y-37535500D01*
X135943535Y-37535500D01*
X135943534Y-37535500D01*
X135250934Y-37535500D01*
X134327464Y-37535501D01*
X134298227Y-37538100D01*
X134208084Y-37546113D01*
X134012454Y-37602089D01*
X133922272Y-37649196D01*
X133832093Y-37696302D01*
X133832091Y-37696303D01*
X133832090Y-37696304D01*
X133674390Y-37824890D01*
X133545804Y-37982590D01*
X133451589Y-38162954D01*
X133395614Y-38358583D01*
X133395613Y-38358586D01*
X133392857Y-38389588D01*
X133385000Y-38477963D01*
X133385001Y-39794036D01*
X133385271Y-39797068D01*
X133395613Y-39913415D01*
X133451589Y-40109045D01*
X133545805Y-40289412D01*
X133622230Y-40383140D01*
X133649339Y-40447536D01*
X133637329Y-40516366D01*
X133590014Y-40567776D01*
X133526128Y-40585500D01*
X129418657Y-40585500D01*
X129412576Y-40585201D01*
X129364000Y-40580417D01*
X129312392Y-40585500D01*
X129158067Y-40600699D01*
X128960043Y-40660769D01*
X128777546Y-40758317D01*
X128617588Y-40889591D01*
X128617587Y-40889592D01*
X128586616Y-40927329D01*
X128582529Y-40931839D01*
X120701188Y-48813181D01*
X120639865Y-48846666D01*
X120613507Y-48849500D01*
X86886494Y-48849500D01*
X86819455Y-48829815D01*
X86798813Y-48813181D01*
X86308460Y-48322828D01*
X87512277Y-48322828D01*
X87545488Y-48340801D01*
X87545490Y-48340802D01*
X87775897Y-48419901D01*
X88016193Y-48460000D01*
X88259807Y-48460000D01*
X88500102Y-48419901D01*
X88730512Y-48340801D01*
X88763721Y-48322828D01*
X88763721Y-48322827D01*
X88138001Y-47697107D01*
X88138000Y-47697107D01*
X87512277Y-48322828D01*
X86308460Y-48322828D01*
X85820030Y-47834398D01*
X84975637Y-46990005D01*
X86662962Y-46990005D01*
X86683079Y-47232779D01*
X86742883Y-47468942D01*
X86806627Y-47614265D01*
X87359004Y-47061889D01*
X87638000Y-47061889D01*
X87678507Y-47199844D01*
X87756239Y-47320798D01*
X87864900Y-47414952D01*
X87995685Y-47474680D01*
X88102237Y-47490000D01*
X88173763Y-47490000D01*
X88280315Y-47474680D01*
X88411100Y-47414952D01*
X88519761Y-47320798D01*
X88597493Y-47199844D01*
X88638000Y-47061889D01*
X88638000Y-46990001D01*
X88845107Y-46990001D01*
X89469371Y-47614265D01*
X89469372Y-47614264D01*
X89533115Y-47468944D01*
X89592920Y-47232779D01*
X89613038Y-46990005D01*
X89613038Y-46989994D01*
X89592920Y-46747220D01*
X89533116Y-46511057D01*
X89469372Y-46365734D01*
X89469371Y-46365733D01*
X88845107Y-46989999D01*
X88845107Y-46990001D01*
X88638000Y-46990001D01*
X88638000Y-46918111D01*
X88597493Y-46780156D01*
X88519761Y-46659202D01*
X88411100Y-46565048D01*
X88280315Y-46505320D01*
X88173763Y-46490000D01*
X88102237Y-46490000D01*
X87995685Y-46505320D01*
X87864900Y-46565048D01*
X87756239Y-46659202D01*
X87678507Y-46780156D01*
X87638000Y-46918111D01*
X87638000Y-47061889D01*
X87359004Y-47061889D01*
X87430893Y-46990000D01*
X86806627Y-46365734D01*
X86742883Y-46511057D01*
X86683079Y-46747220D01*
X86662962Y-46989994D01*
X86662962Y-46990005D01*
X84975637Y-46990005D01*
X83642801Y-45657170D01*
X87512276Y-45657170D01*
X88138000Y-46282893D01*
X88138001Y-46282893D01*
X88763722Y-45657170D01*
X88763722Y-45657169D01*
X88730522Y-45639203D01*
X88730511Y-45639198D01*
X88500102Y-45560098D01*
X88259807Y-45520000D01*
X88016193Y-45520000D01*
X87775897Y-45560098D01*
X87545492Y-45639197D01*
X87545476Y-45639203D01*
X87512276Y-45657170D01*
X83642801Y-45657170D01*
X82881456Y-44895825D01*
X82877378Y-44891325D01*
X82846408Y-44853588D01*
X82686452Y-44722317D01*
X82686453Y-44722317D01*
X82686450Y-44722315D01*
X82575736Y-44663136D01*
X82503958Y-44624769D01*
X82503955Y-44624768D01*
X82305934Y-44564700D01*
X82305931Y-44564699D01*
X82305933Y-44564699D01*
X82104934Y-44544903D01*
X82100000Y-44544417D01*
X82099999Y-44544417D01*
X82051424Y-44549201D01*
X82045343Y-44549500D01*
X81374499Y-44549500D01*
X81307460Y-44529815D01*
X81261705Y-44477011D01*
X81250499Y-44425500D01*
X81250499Y-43799998D01*
X81250498Y-43799981D01*
X81239999Y-43697203D01*
X81239998Y-43697200D01*
X81224357Y-43650000D01*
X81184814Y-43530666D01*
X81092712Y-43381344D01*
X80968656Y-43257288D01*
X80819334Y-43165186D01*
X80652797Y-43110001D01*
X80652795Y-43110000D01*
X80550010Y-43099500D01*
X76949998Y-43099500D01*
X76949981Y-43099501D01*
X76847203Y-43110000D01*
X76847200Y-43110001D01*
X76680668Y-43165185D01*
X76680663Y-43165187D01*
X76531342Y-43257289D01*
X76407289Y-43381342D01*
X76315187Y-43530663D01*
X76315186Y-43530666D01*
X76260001Y-43697203D01*
X76260001Y-43697204D01*
X76260000Y-43697204D01*
X76249500Y-43799983D01*
X76249500Y-47400001D01*
X76249501Y-47400018D01*
X76260000Y-47502796D01*
X76260001Y-47502799D01*
X76304304Y-47636496D01*
X76306706Y-47706325D01*
X76270974Y-47766366D01*
X76208453Y-47797559D01*
X76186598Y-47799500D01*
X74811136Y-47799501D01*
X74619934Y-47814547D01*
X74371135Y-47874279D01*
X74134760Y-47972188D01*
X74134757Y-47972190D01*
X73916603Y-48105875D01*
X73916598Y-48105878D01*
X73722044Y-48272044D01*
X73555878Y-48466598D01*
X73555875Y-48466603D01*
X73422190Y-48684757D01*
X73422188Y-48684760D01*
X73324279Y-48921135D01*
X73264547Y-49169934D01*
X73249500Y-49361135D01*
X73249501Y-51238864D01*
X73264547Y-51430065D01*
X73324279Y-51678864D01*
X73422188Y-51915239D01*
X73422190Y-51915242D01*
X73555875Y-52133396D01*
X73555878Y-52133401D01*
X73598843Y-52183706D01*
X73722044Y-52327956D01*
X73808280Y-52401608D01*
X73916598Y-52494121D01*
X73916600Y-52494122D01*
X73916601Y-52494123D01*
X74017464Y-52555932D01*
X74134757Y-52627809D01*
X74134760Y-52627811D01*
X74341754Y-52713550D01*
X74371140Y-52725722D01*
X74619930Y-52785452D01*
X74747401Y-52795484D01*
X74811135Y-52800500D01*
X74811136Y-52800499D01*
X74811137Y-52800500D01*
X75749999Y-52800499D01*
X76688864Y-52800499D01*
X76743492Y-52796199D01*
X76880070Y-52785452D01*
X77128860Y-52725722D01*
X77250754Y-52675232D01*
X77365239Y-52627811D01*
X77365240Y-52627810D01*
X77365243Y-52627809D01*
X77560070Y-52508418D01*
X77627516Y-52490174D01*
X77694118Y-52511290D01*
X77738732Y-52565062D01*
X77747192Y-52634418D01*
X77716812Y-52697337D01*
X77712541Y-52701827D01*
X74398204Y-56016163D01*
X74336881Y-56049648D01*
X74297923Y-56051840D01*
X74275023Y-56049501D01*
X74275014Y-56049500D01*
X74275009Y-56049500D01*
X74275003Y-56049500D01*
X72474998Y-56049500D01*
X72474981Y-56049501D01*
X72372203Y-56060000D01*
X72372200Y-56060001D01*
X72205668Y-56115185D01*
X72205663Y-56115187D01*
X72056342Y-56207289D01*
X71932289Y-56331342D01*
X71840187Y-56480663D01*
X71840186Y-56480666D01*
X71785001Y-56647203D01*
X71785001Y-56647204D01*
X71785000Y-56647204D01*
X71774500Y-56749983D01*
X71774500Y-56800524D01*
X71754815Y-56867563D01*
X71702011Y-56913318D01*
X71632853Y-56923262D01*
X71571835Y-56896377D01*
X71421173Y-56772733D01*
X71421166Y-56772727D01*
X71335000Y-56726671D01*
X71335000Y-57578111D01*
X71294493Y-57440156D01*
X71216761Y-57319202D01*
X71108100Y-57225048D01*
X70977315Y-57165320D01*
X70870763Y-57150000D01*
X70799237Y-57150000D01*
X70692685Y-57165320D01*
X70561900Y-57225048D01*
X70453239Y-57319202D01*
X70375507Y-57440156D01*
X70335000Y-57578111D01*
X70335000Y-57721889D01*
X66351840Y-57721889D01*
X66353085Y-57149999D01*
X69911671Y-57149999D01*
X69911672Y-57150000D01*
X70335000Y-57150000D01*
X70335000Y-56726671D01*
X70334999Y-56726671D01*
X70248833Y-56772727D01*
X70248826Y-56772732D01*
X70088944Y-56903944D01*
X69957732Y-57063826D01*
X69957727Y-57063833D01*
X69911671Y-57149999D01*
X66353085Y-57149999D01*
X66379318Y-45100000D01*
X71050000Y-45100000D01*
X72250000Y-45100000D01*
X72250000Y-46100000D01*
X71050001Y-46100000D01*
X71050001Y-46655097D01*
X71060078Y-46768460D01*
X71113228Y-46954215D01*
X71202686Y-47125474D01*
X71324784Y-47275215D01*
X71474525Y-47397313D01*
X71645784Y-47486771D01*
X71831538Y-47539920D01*
X71831541Y-47539921D01*
X71944901Y-47550000D01*
X71944902Y-47550000D01*
X72249999Y-47549999D01*
X72250000Y-47549998D01*
X72250000Y-46635763D01*
X72265320Y-46742315D01*
X72325048Y-46873100D01*
X72419202Y-46981761D01*
X72540156Y-47059493D01*
X72678111Y-47100000D01*
X72821889Y-47100000D01*
X72959844Y-47059493D01*
X73080798Y-46981761D01*
X73174952Y-46873100D01*
X73234680Y-46742315D01*
X73250000Y-46635763D01*
X73250000Y-47549999D01*
X73555097Y-47549999D01*
X73668460Y-47539921D01*
X73854215Y-47486771D01*
X74025474Y-47397313D01*
X74175215Y-47275215D01*
X74297313Y-47125474D01*
X74386771Y-46954215D01*
X74439920Y-46768461D01*
X74439921Y-46768458D01*
X74450000Y-46655099D01*
X74450000Y-46100000D01*
X73250000Y-46100000D01*
X73250000Y-45100000D01*
X74449999Y-45100000D01*
X74449999Y-44544903D01*
X74439921Y-44431539D01*
X74386771Y-44245784D01*
X74297313Y-44074525D01*
X74175215Y-43924784D01*
X74025474Y-43802686D01*
X73854215Y-43713228D01*
X73668461Y-43660079D01*
X73668458Y-43660078D01*
X73555099Y-43650000D01*
X73250000Y-43650000D01*
X73250000Y-44564237D01*
X73234680Y-44457685D01*
X73174952Y-44326900D01*
X73080798Y-44218239D01*
X72959844Y-44140507D01*
X72821889Y-44100000D01*
X72678111Y-44100000D01*
X72540156Y-44140507D01*
X72419202Y-44218239D01*
X72325048Y-44326900D01*
X72265320Y-44457685D01*
X72250000Y-44564237D01*
X72250000Y-43650000D01*
X72249999Y-43650000D01*
X71944904Y-43650001D01*
X71944903Y-43650001D01*
X71831539Y-43660078D01*
X71645784Y-43713228D01*
X71474525Y-43802686D01*
X71324784Y-43924784D01*
X71202686Y-44074525D01*
X71113228Y-44245784D01*
X71060079Y-44431538D01*
X71060078Y-44431541D01*
X71050000Y-44544901D01*
X71050000Y-45100000D01*
X66379318Y-45100000D01*
X66390273Y-40067763D01*
X88145787Y-40067763D01*
X88175413Y-40337013D01*
X88175415Y-40337024D01*
X88243926Y-40599082D01*
X88243928Y-40599088D01*
X88349870Y-40848390D01*
X88421998Y-40966575D01*
X88490979Y-41079605D01*
X88490986Y-41079615D01*
X88664253Y-41287819D01*
X88664259Y-41287824D01*
X88865998Y-41468582D01*
X89091910Y-41618044D01*
X89337176Y-41733020D01*
X89337183Y-41733022D01*
X89337185Y-41733023D01*
X89596557Y-41811057D01*
X89596564Y-41811058D01*
X89596569Y-41811060D01*
X89864561Y-41850500D01*
X89864566Y-41850500D01*
X90067636Y-41850500D01*
X90119133Y-41846730D01*
X90270156Y-41835677D01*
X90382758Y-41810593D01*
X90534546Y-41776782D01*
X90534548Y-41776781D01*
X90534553Y-41776780D01*
X90787558Y-41680014D01*
X91023777Y-41547441D01*
X91238177Y-41381888D01*
X91426186Y-41186881D01*
X91583799Y-40966579D01*
X91690875Y-40758315D01*
X91707649Y-40725690D01*
X91707651Y-40725684D01*
X91707656Y-40725675D01*
X91795118Y-40469305D01*
X91844319Y-40202933D01*
X91849259Y-40067763D01*
X123145787Y-40067763D01*
X123175413Y-40337013D01*
X123175415Y-40337024D01*
X123243926Y-40599082D01*
X123243928Y-40599088D01*
X123349870Y-40848390D01*
X123421998Y-40966575D01*
X123490979Y-41079605D01*
X123490986Y-41079615D01*
X123664253Y-41287819D01*
X123664259Y-41287824D01*
X123865998Y-41468582D01*
X124091910Y-41618044D01*
X124337176Y-41733020D01*
X124337183Y-41733022D01*
X124337185Y-41733023D01*
X124596557Y-41811057D01*
X124596564Y-41811058D01*
X124596569Y-41811060D01*
X124864561Y-41850500D01*
X124864566Y-41850500D01*
X125067636Y-41850500D01*
X125119133Y-41846730D01*
X125270156Y-41835677D01*
X125382758Y-41810593D01*
X125534546Y-41776782D01*
X125534548Y-41776781D01*
X125534553Y-41776780D01*
X125787558Y-41680014D01*
X126023777Y-41547441D01*
X126238177Y-41381888D01*
X126426186Y-41186881D01*
X126583799Y-40966579D01*
X126690875Y-40758315D01*
X126707649Y-40725690D01*
X126707651Y-40725684D01*
X126707656Y-40725675D01*
X126795118Y-40469305D01*
X126844319Y-40202933D01*
X126854212Y-39932235D01*
X126824586Y-39662982D01*
X126756072Y-39400912D01*
X126650130Y-39151610D01*
X126509018Y-38920390D01*
X126419747Y-38813119D01*
X126335746Y-38712180D01*
X126335740Y-38712175D01*
X126134002Y-38531418D01*
X125908092Y-38381957D01*
X125858237Y-38358586D01*
X125662824Y-38266980D01*
X125662819Y-38266978D01*
X125662814Y-38266976D01*
X125403442Y-38188942D01*
X125403428Y-38188939D01*
X125287791Y-38171921D01*
X125135439Y-38149500D01*
X124932369Y-38149500D01*
X124932364Y-38149500D01*
X124729844Y-38164323D01*
X124729831Y-38164325D01*
X124465453Y-38223217D01*
X124465446Y-38223220D01*
X124212439Y-38319987D01*
X123976226Y-38452557D01*
X123976224Y-38452558D01*
X123976223Y-38452559D01*
X123943321Y-38477965D01*
X123761822Y-38618112D01*
X123573822Y-38813109D01*
X123573816Y-38813116D01*
X123416202Y-39033419D01*
X123416199Y-39033424D01*
X123292350Y-39274309D01*
X123292343Y-39274327D01*
X123204884Y-39530685D01*
X123204882Y-39530695D01*
X123156242Y-39794033D01*
X123155681Y-39797068D01*
X123155680Y-39797075D01*
X123145787Y-40067763D01*
X91849259Y-40067763D01*
X91854212Y-39932235D01*
X91824586Y-39662982D01*
X91756072Y-39400912D01*
X91650130Y-39151610D01*
X91509018Y-38920390D01*
X91419747Y-38813119D01*
X91335746Y-38712180D01*
X91335740Y-38712175D01*
X91134002Y-38531418D01*
X90908092Y-38381957D01*
X90858237Y-38358586D01*
X90662824Y-38266980D01*
X90662819Y-38266978D01*
X90662814Y-38266976D01*
X90403442Y-38188942D01*
X90403428Y-38188939D01*
X90287791Y-38171921D01*
X90135439Y-38149500D01*
X89932369Y-38149500D01*
X89932364Y-38149500D01*
X89729844Y-38164323D01*
X89729831Y-38164325D01*
X89465453Y-38223217D01*
X89465446Y-38223220D01*
X89212439Y-38319987D01*
X88976226Y-38452557D01*
X88976224Y-38452558D01*
X88976223Y-38452559D01*
X88943321Y-38477965D01*
X88761822Y-38618112D01*
X88573822Y-38813109D01*
X88573816Y-38813116D01*
X88416202Y-39033419D01*
X88416199Y-39033424D01*
X88292350Y-39274309D01*
X88292343Y-39274327D01*
X88204884Y-39530685D01*
X88204882Y-39530695D01*
X88156242Y-39794033D01*
X88155681Y-39797068D01*
X88155680Y-39797075D01*
X88145787Y-40067763D01*
X66390273Y-40067763D01*
X66399730Y-35723660D01*
X66419561Y-35656667D01*
X66472464Y-35611027D01*
X66523660Y-35599933D01*
X139787050Y-35560500D01*
X140591500Y-35560500D01*
X140658539Y-35580185D01*
G37*
G04 #@! TD.AperFunction*
M02*
